<?xml version="1.0" encoding="UTF-8"?><svg id="Layer_2" xmlns="http://www.w3.org/2000/svg" viewBox="0 0 720 600"><defs><style>.cls-1{fill:#fff;}.cls-2{fill:#d0d2d3;}.cls-3{fill:#221f20;}.cls-4{stroke:#221f20;stroke-miterlimit:10;stroke-width:2px;}.cls-4,.cls-5{fill:none;}.cls-5{stroke:#000;}</style></defs><path class="cls-3" d="M553.49,518.67c.04-.81,.12-1.37,.26-1.68,.13-.31,.35-.46,.64-.46,.28,0,.49,.15,.63,.45,.14,.28,.2,.79,.2,1.53v.15h-1.73Zm3.32,3.38c-.39,.68-.9,1.02-1.53,1.02-.59,0-1.06-.32-1.41-.97-.15-.32-.27-.63-.33-.96-.07-.32-.1-.77-.1-1.34v-.14h4.25v-.08c0-.83-.13-1.54-.39-2.15-.26-.61-.63-1.07-1.13-1.4-.49-.33-1.07-.49-1.74-.49-.53,0-1.01,.12-1.46,.35-.44,.24-.83,.58-1.16,1.02-.34,.44-.59,.97-.77,1.57-.18,.6-.27,1.26-.27,1.97,0,.66,.09,1.27,.26,1.82,.17,.55,.41,1.02,.73,1.41,.32,.39,.7,.69,1.15,.9,.45,.21,.93,.32,1.45,.32,.79,0,1.48-.22,2.09-.65,.61-.44,1.02-1.01,1.23-1.73l-.87-.49Zm-16.63,1.06c-1.12,0-1.67-1.1-1.67-3.29,0-1.09,.12-1.91,.37-2.46,.24-.55,.6-.83,1.06-.83,.25,0,.48,.07,.68,.21,.2,.14,.35,.33,.45,.57,.21,.5,.31,1.17,.31,2v3.01c-.28,.53-.68,.79-1.2,.79m4.79,.2c-.25-.01-.46-.09-.65-.24-.11-.11-.18-.26-.21-.46-.03-.2-.05-.55-.05-1.07v-10.61h-.62l-3.33,1.08v.47l1.27,.68v3.05c-.2-.22-.46-.39-.77-.5-.32-.12-.66-.17-1.04-.17-.54,0-1.05,.12-1.53,.37-.48,.25-.89,.59-1.24,1.04-.35,.44-.62,.97-.82,1.59-.19,.62-.29,1.27-.29,1.95,0,.84,.14,1.59,.43,2.27,.28,.67,.68,1.2,1.19,1.58,.51,.38,1.09,.57,1.73,.57,1.03,0,1.8-.45,2.31-1.33h.04v1.33h.66l2.93-1v-.61Zm-15.16,.47c-.18,0-.34-.05-.48-.15s-.23-.22-.27-.36c-.07-.22-.1-.79-.1-1.71v-6.01h-.64l-2.81,1.03v.52l.77,.49v3.97c0,.88-.04,1.45-.12,1.71-.04,.15-.13,.27-.26,.37-.14,.1-.29,.14-.47,.14v.89h4.38v-.89Zm-.7-11.98c-.14-.24-.32-.43-.57-.57-.24-.14-.49-.2-.76-.2s-.52,.07-.76,.2c-.24,.14-.42,.32-.56,.56-.14,.24-.21,.49-.21,.76,0,.42,.15,.78,.45,1.07,.3,.3,.66,.45,1.07,.45,.26,0,.52-.07,.76-.2,.24-.14,.43-.32,.57-.56,.14-.24,.2-.49,.2-.75s-.07-.52-.2-.76m-16.54,7.07l1.21-4.71h.04l1.13,4.71h-2.38Zm7.48,4.82c-.21-.08-.38-.19-.49-.33-.12-.14-.24-.37-.36-.71-.12-.33-.26-.8-.41-1.4l-2.59-10.08h-3.17l.3,1.15-2.42,8.46c-.22,.77-.4,1.32-.53,1.67-.14,.35-.27,.61-.42,.79-.14,.18-.33,.33-.57,.45v.99h3.29v-.99c-.64-.23-.96-.65-.96-1.25,0-.41,.06-.8,.18-1.19l.36-1.23h3.01l.38,1.52c.14,.62,.21,1.01,.21,1.17,0,.51-.27,.83-.81,.98v.99h5.01v-.99Zm-28.37-5.02c.04-.81,.12-1.37,.26-1.68,.13-.31,.35-.46,.64-.46,.28,0,.49,.15,.63,.45,.14,.28,.2,.79,.2,1.53v.15h-1.73Zm3.32,3.38c-.39,.68-.9,1.02-1.53,1.02-.59,0-1.06-.32-1.41-.97-.15-.32-.27-.63-.33-.96-.07-.32-.1-.77-.1-1.34v-.14h4.25v-.08c0-.83-.13-1.54-.39-2.15-.26-.61-.63-1.07-1.13-1.4-.49-.33-1.07-.49-1.74-.49-.53,0-1.01,.12-1.46,.35-.44,.24-.83,.58-1.16,1.02-.34,.44-.59,.97-.77,1.57-.18,.6-.27,1.26-.27,1.97,0,.66,.09,1.27,.26,1.82,.17,.55,.41,1.02,.73,1.41s.7,.69,1.15,.9,.93,.32,1.45,.32c.79,0,1.48-.22,2.09-.65,.61-.44,1.02-1.01,1.23-1.73l-.87-.49Zm-16.63,1.06c-1.12,0-1.67-1.1-1.67-3.29,0-1.09,.12-1.91,.37-2.46,.24-.55,.6-.83,1.06-.83,.25,0,.48,.07,.68,.21,.2,.14,.35,.33,.45,.57,.21,.5,.31,1.17,.31,2v3.01c-.28,.53-.68,.79-1.2,.79m4.79,.2c-.25-.01-.46-.09-.65-.24-.11-.11-.18-.26-.21-.46-.03-.2-.05-.55-.05-1.07v-10.61h-.62l-3.33,1.08v.47l1.27,.68v3.05c-.2-.22-.46-.39-.77-.5-.32-.12-.66-.17-1.04-.17-.54,0-1.05,.12-1.53,.37-.48,.25-.89,.59-1.24,1.04-.35,.44-.62,.97-.82,1.59-.19,.62-.29,1.27-.29,1.95,0,.84,.14,1.59,.43,2.27,.28,.67,.68,1.2,1.19,1.58,.51,.38,1.09,.57,1.73,.57,1.03,0,1.8-.45,2.31-1.33h.04v1.33h.66l2.93-1v-.61Zm-15.16,.47c-.18,0-.34-.05-.48-.15s-.23-.22-.27-.36c-.07-.22-.1-.79-.1-1.71v-6.01h-.64l-2.81,1.03v.52l.77,.49v3.97c0,.88-.04,1.45-.12,1.71-.04,.15-.13,.27-.26,.37-.14,.1-.29,.14-.47,.14v.89h4.38v-.89Zm-.7-11.98c-.14-.24-.32-.43-.57-.57-.24-.14-.49-.2-.76-.2s-.52,.07-.76,.2-.42,.32-.56,.56c-.14,.24-.21,.49-.21,.76,0,.42,.15,.78,.45,1.07,.3,.3,.66,.45,1.07,.45,.26,0,.52-.07,.76-.2,.24-.14,.43-.32,.57-.56,.14-.24,.2-.49,.2-.75s-.07-.52-.2-.76m-16.54,7.07l1.21-4.71h.04l1.13,4.71h-2.38Zm7.48,4.82c-.21-.08-.38-.19-.49-.33-.12-.14-.24-.37-.36-.71-.12-.33-.26-.8-.42-1.4l-2.59-10.08h-3.17l.3,1.15-2.42,8.46c-.22,.77-.4,1.32-.53,1.67-.14,.35-.27,.61-.42,.79-.14,.18-.33,.33-.57,.45v.99h3.29v-.99c-.64-.23-.96-.65-.96-1.25,0-.41,.06-.8,.18-1.19l.36-1.23h3.01l.38,1.52c.14,.62,.21,1.01,.21,1.17,0,.51-.27,.83-.81,.98v.99h5.01v-.99Z"/><path class="cls-3" d="M578.56,223.11l-13.25,104.32h81.96l-13.25-104.32v-47.19h-55.47v47.19Zm64.99-93.14l34.36,278.59v11.18h-19.87l-5.38-45.95h-92.72l-5.38,45.95h-19.87v-11.18l34.36-278.59h74.51Zm-142.81,243.4l-14.9-145.71v-51.74h-53.81v51.74l-14.9,145.71h83.62Zm-113.42,0h9.11l25.25-243.4h74.51l25.25,243.4h9.11v86.1h-21.94v-39.74h-99.35v39.74h-21.94v-86.1Zm-4.14,.41h-73.27v-75.75h65.82v-46.36h-65.82v-75.75h73.27v-45.95h-95.21V419.73h95.21v-45.95Zm-120.46-197.87h-75.34v75.75h75.34v-75.75Zm-10.76-41.81c7.45,2.76,13.59,7.45,18.42,14.07,4.83,6.62,8.41,15.25,10.76,25.87,2.34,10.63,3.52,23.8,3.52,39.53,0,17.39-1.45,31.53-4.35,42.43-2.9,10.91-6.97,19.46-12.21,25.67-5.25,6.21-11.38,10.49-18.42,12.83-7.04,2.35-14.69,3.52-22.97,3.52h-39.32v121.7h-21.94V129.97h60.44c9.94,0,18.63,1.38,26.08,4.14m-90.65,167.65c0,17.94-.49,34.5-1.45,49.67-.97,15.18-3.38,28.29-7.24,39.33-3.87,11.04-9.8,19.66-17.8,25.87-8.01,6.21-19.04,9.31-33.12,9.31s-25.6-3.25-33.74-9.73c-8.14-6.48-14.07-15.45-17.8-26.91-3.73-11.45-6-24.97-6.83-40.57-.83-15.59-1.24-32.49-1.24-50.71v-46.36c0-18.21,.41-35.11,1.24-50.71,.83-15.59,3.1-29.11,6.83-40.57,3.72-11.45,9.66-20.42,17.8-26.91,8.14-6.48,19.38-9.73,33.74-9.73s25.11,3.1,33.12,9.31c8,6.21,13.93,14.84,17.8,25.87,3.86,11.04,6.27,24.15,7.24,39.32,.96,15.18,1.45,31.74,1.45,49.67h-21.94v-77.82H64.03v209.46h75.34v-77.82h21.94Z"/><rect class="cls-4" x="42.24" y="73.39" width="635.51" height=".96"/><path class="cls-3" d="M99.19,517.94c0,4.77-1.23,9.39-3.69,13.86-2.49,4.42-5.9,7.84-10.25,10.25-4.52,2.49-9.16,3.73-13.9,3.73s-9.38-1.24-13.9-3.73c-4.37-2.41-7.79-5.84-10.25-10.29-2.49-4.42-3.73-9.03-3.73-13.83s1.26-9.52,3.77-14.02c2.49-4.4,5.94-7.81,10.36-10.25,4.47-2.41,9.05-3.62,13.75-3.62s9.26,1.21,13.75,3.62c4.45,2.44,7.89,5.85,10.32,10.25,2.51,4.5,3.77,9.17,3.77,14.02Zm-5.76,12.02l.3-.68,.45-.9c.05-.1,.09-.21,.13-.34,.04-.13,.09-.25,.17-.38,1.33-3.16,2-6.4,2-9.72,0-4.32-1.13-8.53-3.39-12.62-2.21-3.99-5.34-7.08-9.38-9.27s-8.16-3.28-12.36-3.28-8.36,1.09-12.36,3.28c-4.04,2.19-7.17,5.27-9.38,9.27-2.29,4.07-3.43,8.28-3.43,12.62s1.12,8.45,3.35,12.47c2.24,3.99,5.35,7.1,9.34,9.31,3.94,2.21,8.1,3.32,12.47,3.32s8.58-1.11,12.47-3.32c3.99-2.21,7.11-5.31,9.34-9.31,.13-.25,.21-.4,.26-.45Zm-21.81,2.07h-3.24c-.33-.8-.55-1.75-.68-2.83l-.11-1.32-.98,.87c-1.68,1.48-3.22,2.49-4.6,3.01-1.46,.58-3.01,.87-4.67,.87-1.48,0-2.84-.23-4.07-.68-.93-.4-1.66-.85-2.19-1.36l-.34-.34c-.93-1.11-1.48-2.26-1.66-3.47-.1-.65-.15-1.13-.15-1.43,0-.48,.08-1.12,.23-1.92,.15-.55,.35-1.05,.6-1.51,.53-1,1.23-1.83,2.11-2.49,.83-.58,1.83-1.07,3.01-1.47,.93-.2,2.24-.43,3.92-.68,3.59-.4,6.29-.94,8.1-1.62l.41-.15v-.45l.04-1.24c0-2.11-.49-3.62-1.47-4.52-1.31-1.18-3.15-1.77-5.54-1.77-2.24,0-3.93,.44-5.09,1.32-1,.8-1.78,2.1-2.34,3.88l-3.05-.45c.33-1.53,.88-2.81,1.66-3.84,.8-1.03,2.02-1.88,3.65-2.56,1.56-.6,3.49-.9,5.8-.9s4.04,.26,5.27,.79c1.26,.48,2.2,1.09,2.83,1.85,.6,.8,1.02,1.78,1.24,2.94,.15,.75,.23,2.16,.23,4.22v6.25c0,3.62,.08,6.14,.23,7.57,0,.3,.03,.58,.08,.83l.11,.53c.1,.65,.31,1.34,.64,2.07Zm-4.3-14.28l-.87,.38c-1.66,.7-4.06,1.28-7.2,1.73-1.98,.33-3.34,.67-4.07,1.02-.83,.35-1.52,.94-2.07,1.77-.48,.8-.72,1.66-.72,2.56,0,1.43,.53,2.64,1.58,3.62,1.03,.95,2.5,1.43,4.41,1.43s3.52-.43,4.97-1.28c1.43-.88,2.49-2.06,3.16-3.54,.53-1.08,.79-2.74,.79-4.97v-2.71Zm26,10.93h-3.99l-2.26-4.11c-1.96-3.54-3.58-5.78-4.86-6.71-.95-.73-2.29-1.09-3.99-1.09h-3.28v11.91h-3.2v-26.75h8.93c3.29,0,5.59,.24,6.89,.72,.4,.15,.7,.29,.9,.41,.88,.48,1.62,1.17,2.22,2.07,.75,1.11,1.16,2.29,1.21,3.54l.04,.23c0,1.83-.68,3.45-2.03,4.86-1.31,1.38-3.09,2.17-5.35,2.37l-.19,1.21c.9,.4,1.62,.85,2.15,1.36,1.16,1.21,2.5,3.03,4.03,5.46l1.54,2.56,.75,1.13,.49,.83Zm-6.56-15.86c1.08-.9,1.62-2.1,1.62-3.58,0-1.03-.26-1.9-.79-2.6-.55-.78-1.28-1.33-2.19-1.66-.85-.38-2.42-.57-4.71-.57h-5.76v9.76h6.07c2.76,0,4.68-.45,5.76-1.36Z"/><g id="Rayon_Oborishte"><g><path class="cls-3" d="M183.55,538.87c.01,.1,.04,.19,.04,.29,0,2.73,0,5.46,0,8.2,0,.12-.01,.24-.02,.4-.47,.19-.94,.39-1.42,.58-3.62,1.42-7.31,2.63-11.08,3.57-2.46,.62-4.94,1.13-7.44,1.49-1.63,.23-3.26,.38-4.9,.55-2.71,.28-5.43,.27-8.15,.19-1.5-.04-2.99-.2-4.48-.34-3.36-.31-6.68-.92-9.96-1.69-4.4-1.03-8.7-2.41-12.89-4.11-.19-.08-.38-.16-.56-.25v-8.91c.72,.33,1.41,.64,2.17,.99-.18-5.09-.16-10.17-.13-15.26,.13-3.25-.22-6.57,.25-9.78,.39-1.45,.59-2.93,.61-4.44,.01-.84-.16-1.61-.54-2.36-.34-.67-.63-1.37-.73-2.13-.08-.61-.09-1.22,.09-1.81,.48-1.58,1.07-3.11,1.92-4.53,.05-.08,.11-.16,.17-.24,.01-.02,.04-.03,.09-.06,.48,.59,.69,1.32,1.09,2.05,.38-.59,.73-1.14,1.11-1.73,.08,.13,.15,.23,.21,.33,.94,1.76,1.88,3.53,2.82,5.29,.45,3.13,.02,6.43,.16,9.62,0,9.12,0,18.25,0,27.37,0,.13,0,.26,0,.42,.54,.17,1.05,.34,1.56,.49,3.28,1,6.6,1.78,9.99,2.31,1.45,.23,2.92,.41,4.38,.53,1.75,.14,3.5,.26,5.25,.27,2.5,.02,4.99-.19,7.47-.54,4.13-.58,8.17-1.58,12.14-2.83,.53-.17,1.07-.34,1.65-.53v-42.22c1.86-.09,3.71-.04,5.57-.02,.95,.02,1.85,.3,2.63,.88,1,.75,1.36,1.79,1.25,2.99-.09,.99-.48,1.88-1.13,2.65-.41,.49-.91,.84-1.55,1.03v32.2c.81-.31,1.58-.61,2.34-.9h0Zm-.59,.88c-.15,.05-.24,.08-.33,.11-7.22,2.79-14.54,5.46-22.27,6.39-1.84,.23-3.68,.39-5.53,.49-2.01,.1-4.02,.02-6.03-.14-2.27-.18-4.53-.47-6.77-.88-2.96-.54-5.88-1.25-8.76-2.13-3.28-1-6.48-2.21-9.59-3.66-.11-.05-.22-.09-.36-.14v7.59c.47,.19,.92,.37,1.37,.55,6.8,2.63,13.81,4.46,21.07,5.23,1.9,.2,3.81,.34,5.72,.41,2.85,.11,5.71,0,8.54-.34,2.14-.25,4.28-.52,6.4-.91,5.03-.92,9.92-2.38,14.69-4.21,.62-.24,1.24-.49,1.86-.74v-7.61Zm-5.53,1.47v-32.18c.21,0,.37,.02,.57,.03,0,.23,0,.41,0,.59,0,10.23,0,20.47,0,30.7,0,.11,0,.22,0,.33,0,.09,.04,.18,.07,.31,.86-.33,1.67-.64,2.46-.94v-32.36c-1.26,0-2.84-.38-3.02-1.73-.12-.72,.13-1.37,.51-1.97,.59-1.13,2.53-1.38,3-.07,.2,.63-.25,1.48-.78,1.66-.09-.13-.19-.26-.28-.38,.15-.19,.3-.34,.4-.52,.5-.86-.62-1.27-1.26-.91-.59,.27-.84,.84-.97,1.43-.2,.87,.17,1.48,1.03,1.73,.63,.18,1.28,.17,1.92,.04,.29-.06,.58-.2,.81-.39,1.46-1.21,2.12-3.86,.44-5.16-.76-.57-1.64-.8-2.57-.82-1.56,0-3.13-.07-4.69,.04v41.41c.81-.28,1.56-.55,2.35-.83Zm-48.84-34.34c-.33,.91-.9,1.7-.98,2.65-.11,1.68,.07,3.34,.51,4.96,.18,.65,.24,1.31,.24,1.98,0,1.63,.04,3.27,.04,4.9,.01,4.16,.03,8.32,.02,12.48,0,1.91-.09,3.83-.13,5.74-.01,.53,0,1.06,0,1.66,.99,.36,2.01,.73,3.07,1.11v-36.41c-.82,.4-1.6,.77-2.36,1.14-.13-.07-.24-.12-.4-.21Zm-.98,34.09c.02-.18,.04-.28,.04-.39,.06-1.86,.17-3.73,.18-5.59,.02-4.04-.01-8.07-.03-12.11,0-2.18-.02-4.36-.03-6.55,0-.15-.03-.3-.04-.44h-2.3c-.07,.98-.04,1.97-.07,2.95-.02,2.37-.01,4.73-.05,7.1-.08,4.51,0,9.02,.12,13.53,0,.2,.05,.41,.07,.63,.7,.28,1.38,.56,2.1,.86Zm-1.03-40.69c-1.79,3.03-2.23,6.05-.31,9.16,.2-.02,.47-.04,.64-.05,.28-.69,.52-1.28,.77-1.88,.1-.25,.23-.49,.31-.74,.34-.96,.47-1.94,.08-2.92-.49-1.24-.9-2.35-1.48-3.57Zm2.48,6.12c.73-.36,1.45-.71,2.2-1.08-.69-1.28-1.36-2.51-2.02-3.73h-1.11c-.06,.11-.12,.21-.19,.33,.54,1.39,1.22,2.74,.8,4.28,.07,.06,.1,.1,.14,.13,.04,.03,.09,.04,.16,.07Zm-3.6,8.85c.77,.2,1.46,.12,2.22,0-.48-1.73-.72-3.46-.72-5.23-.35,0-.48,0-.82,.03,.07,1.78-.23,3.49-.68,5.2Z"/><path class="cls-3" d="M139.17,515.88c-.38-.36-.74-.71-1.1-1.05-.95-.91-1.9-1.82-2.86-2.72-.31-.29-.43-.6-.42-1.03,.02-3.21,.01-6.42,0-9.62-.06-1.14,.1-2.5-.99-3.22,0-.14,.02-.29,.03-.47,2.32-.28,3.62-1.8,4.56-3.73h29.36c.95,1.92,2.23,3.46,4.55,3.73,.02,.1,.04,.17,.05,.24,.01,.06,.02,.12,.04,.2-.8,.54-1,1.36-1,2.26-.01,3.55-.03,7.1-.02,10.65-.46,1.79-2.66,2.79-3.8,4.22-.19,.18-.42,.33-.64,.51,.77,.9,1.44,1.7,2.12,2.5,.7,.83,1.42,1.65,2.11,2.48,.11,.13,.19,.32,.19,.48,0,3.34,.01,6.68-.04,10.02-.02,1.44-.58,2.75-1.35,3.96-1.16,1.83-2.77,3.19-4.62,4.29-2.12,1.26-4.41,2.07-6.85,2.4-1.15,.16-2.25,.41-3.24,1.03-.63,.4-1.22,.84-1.83,1.26-.11,.08-.21,.16-.33,.25-.43-.32-.84-.64-1.26-.94-1-.7-2.04-1.28-3.26-1.5-.89-.16-1.78-.26-2.66-.46-2.74-.65-5.23-1.84-7.38-3.69-1.69-1.45-2.99-3.19-3.49-5.4-.16-.69-.22-1.42-.23-2.14-.02-2.98,0-5.95-.01-8.93,0-.3,.07-.53,.27-.76,1.39-1.62,2.75-3.18,4.11-4.83Zm8.15,6.73s0,0,0,0c-.01-.06,0-.12-.03-.18-.86-1.78-.46-3.79-.55-5.69,0-.15-.03-.3-.06-.49h-7.04c-1.42,1.66-2.84,3.33-4.25,4.98,0,.2,0,.37,0,.54,0,2.98-.01,5.95,0,8.93,.01,2.7,1.49,5.06,3.49,6.76,1.69,1.47,3.63,2.5,5.76,3.17,1.05,.33,2.14,.55,3.23,.75,.63,.12,1.27,.17,1.88,.4,.9,.33,1.71,.82,2.49,1.36,.13,.09,.28,.17,.45,.28v-17.87c-.41-.07-.8-.11-1.18-.19-1.42-.29-2.67-.9-3.63-2.03-.2-.24-.38-.5-.57-.75Zm12.07-13.01v5.98h7.12c.27-.28,.55-.59,.84-.88,1.03-.99,2.06-1.98,3.1-2.95,.24-.22,.31-.46,.31-.77,0-3.4,0-6.81,0-10.21,0-.68,.07-1.36,.36-2,.08-.18,.19-.36,.31-.57-1.96-.53-3.16-1.89-4.03-3.56-.74-.11-13.72-.07-14,.04v14.91h5.98Zm-5.98,33.89c.37-.25,.68-.47,.99-.67,1.03-.66,2.12-1.21,3.36-1.34,.34-.04,.68-.07,1.01-.13,2.07-.37,4.03-1.03,5.87-2.05,1.83-1.03,3.44-2.31,4.64-4.06,.98-1.44,1.49-3.02,1.48-4.77-.02-2.95,0-5.9,0-8.86,0-.26-.08-.47-.25-.66-.71-.82-1.41-1.65-2.12-2.47-.64-.75-1.28-1.5-1.92-2.24h-7.09c0,.17,0,.31,0,.46,0,1.17,.02,2.34,0,3.51-.02,1.06-.31,2.04-.95,2.91-.87,1.19-2.08,1.85-3.48,2.2-.5,.12-1.02,.19-1.55,.28v17.9Zm-18.72-45.28c.71,1.05,.69,2.2,.69,3.35,0,3.3,0,6.6,0,9.9,1.44,1.37,2.88,2.74,4.3,4.1h7.05v-2.41h-7.41c.03-.19,.05-.32,.08-.49h7.32v-.4h-6.5s-.02-.05-.03-.08c.12-.13,.23-.26,.36-.41h6.21v-2.19h5.96v-14.96h-13.98c-.86,1.67-2.16,3.08-4.06,3.58Zm12.69,12.01c0,.27,0,.51,0,.75,0,3,0,6-.02,9,0,1.73,.67,3.11,2.15,3.99,2.17,1.29,4.45,1.33,6.71,.25,1.38-.66,2.25-1.77,2.49-3.31,.08-.51,.05-1.04,.05-1.57,0-2.88,0-5.75,0-8.63,0-.15,0-.31,0-.48h-11.38Z"/><path class="cls-3" d="M164,483.05h7.56c-1.08,3.18-2.15,6.31-3.23,9.46h-30.54c-1.07-3.13-2.14-6.25-3.2-9.38,.27-.13,6.08-.19,7.54-.08,.6,1.19,1.22,2.4,1.84,3.62h4.08v-5h9.99v4.98h4.13c.6-1.19,1.22-2.4,1.83-3.61Zm-6.55-.81h-8.78v5h-5.07c-.62-1.22-1.23-2.43-1.83-3.61h-6.38c.96,2.81,1.9,5.56,2.84,8.3h29.68c.94-2.76,1.88-5.51,2.83-8.31h-6.38c-.62,1.22-1.23,2.42-1.83,3.61h-5.09v-4.99Z"/><polygon class="cls-3" points="183.55 538.87 183.56 538.85 183.55 538.87 183.55 538.87"/><path class="cls-3" d="M172.82,549.35v-3.72c.17-.05,.33-.1,.58-.17v3.18c.41-.13,.74-.23,1.1-.34v-3.18c.2-.06,.38-.12,.62-.2v3.16c.41-.12,.75-.22,1.12-.32v-3.19c.2-.07,.38-.13,.63-.21v3.11c.14,.02,.24,.03,.36,.04v1.51c-.13,.04-.25,.09-.43,.15-.02-.35-.04-.67-.06-1.04-1.31,.4-2.57,.79-3.91,1.21Z"/><path class="cls-3" d="M135.06,550.02c-.25-.06-.47-.11-.71-.16v-3.71c.21,.05,.39,.09,.62,.14v2.52s.07,.02,.1,.03c.46-.71,.93-1.41,1.41-2.15,.22,.05,.44,.09,.7,.14v3.73c-.22-.06-.4-.1-.63-.16v-2.45s-.07-.02-.1-.02c-.45,.69-.91,1.37-1.39,2.1Z"/><path class="cls-3" d="M168.37,550.44v-3.7c.16-.05,.34-.11,.6-.19v2.49s.08,.02,.12,.03c.06-.11,.13-.21,.18-.32,.37-.74,.76-1.47,1.1-2.23,.18-.39,.47-.44,.85-.45v3.66c-.17,.05-.35,.1-.59,.16v-2.43s-.08-.02-.12-.03c-.47,.93-.94,1.87-1.42,2.82-.21,.05-.43,.11-.71,.18Z"/><path class="cls-3" d="M154.89,552.22v-3.74c.88-.06,1.74-.12,2.64-.19,.01,.19,.02,.32,.03,.52-.68,.05-1.33,.11-2.01,.16v.93c.14,0,.27,.02,.39,.02,.29-.02,.58-.05,.88-.06,.62-.02,1.05,.3,1.11,.82,.08,.71-.24,1.24-.89,1.33-.69,.1-1.4,.13-2.15,.2Zm.64-.58c.46-.05,.87-.06,1.27-.13,.31-.05,.48-.32,.44-.62-.04-.29-.21-.47-.55-.47-.38,0-.77,.05-1.17,.08v1.14Z"/><path class="cls-3" d="M153.46,550.38c0,.55-.12,1.08-.54,1.46-.56,.51-1.24,.54-1.92,.33-.65-.2-.98-.68-1.1-1.33-.12-.69-.07-1.35,.43-1.89,.58-.62,1.31-.66,2.06-.39,.73,.26,1.01,.87,1.08,1.6,0,.07,0,.15,0,.22Zm-.67-.06c-.08-2.36-3.09-1.16-2.12,.76,.17,.42,.59,.68,1.04,.66,.45-.02,.83-.31,.96-.76,.06-.21,.08-.43,.12-.66Z"/><path class="cls-3" d="M161.04,547.88c1.17,0,1.74,.57,1.78,1.61,.05,1.59-1.04,2.41-2.34,2.25-.49-.06-.87-.29-1.05-.74-.35-.84-.29-1.67,.27-2.42,.39-.51,.95-.7,1.35-.71Zm1.14,1.84s-.04-.01-.06-.02c.17-1.24-1.26-1.72-1.93-.77-.3,.44-.35,.93-.23,1.43,.12,.52,.36,.77,.79,.83,.48,.07,.95-.15,1.16-.58,.13-.28,.19-.59,.28-.89Z"/><path class="cls-3" d="M142.12,549.61c0,.12,0,.24,0,.36-.09,.94-.81,1.46-1.74,1.29-1.6-.29-2.04-1.8-1.7-2.94,.23-.76,.85-1.09,1.7-.93,1.11,.22,1.74,1.01,1.74,2.22Zm-2.86-.48c-.01,.86,.38,1.43,1.1,1.58,.36,.07,.75-.08,.9-.4,.3-.64,.28-1.28-.1-1.87-.57-.81-1.9-.66-1.91,.51,0,.06,0,.12,0,.18Z"/><path class="cls-3" d="M146.42,551.98c-.21-.02-.39-.03-.61-.05v-1.67c-.55-.06-1.06-.12-1.63-.18v1.66c-.24-.03-.43-.05-.63-.08v-3.7c.21,.02,.39,.05,.62,.07v1.49c.55,.07,1.05,.13,1.62,.2v-1.45h.63v3.71Z"/><path class="cls-3" d="M179.03,545.65v1.14c.67-.23,1.3-.45,1.99-.69,0,.18,.01,.32,.02,.51-.86,.31-1.71,.62-2.62,.94v-3.73c.82-.29,1.65-.59,2.52-.9v.52c-.62,.23-1.26,.46-1.92,.7v.95c.6-.21,1.16-.4,1.76-.61v.52c-.56,.21-1.16,.43-1.77,.65Z"/><path class="cls-3" d="M133.01,549.47c-.19-.06-.38-.12-.55-.18-.12-.33-.22-.63-.33-.96-.5-.15-1-.3-1.53-.46-.11,.27-.21,.49-.32,.75-.21-.06-.41-.11-.67-.18,.47-1.12,.92-2.2,1.39-3.3,.25,.07,.46,.13,.71,.19,.46,1.34,.92,2.69,1.38,4.04-.02,.03-.05,.06-.07,.08Zm-1.19-1.77s.05-.05,.08-.07c-.17-.52-.34-1.04-.5-1.56-.04,0-.07,0-.11,.01-.16,.43-.33,.86-.5,1.31,.4,.12,.72,.21,1.04,.3Z"/><path class="cls-3" d="M164.83,549.71v1.41c-.22,.04-.41,.08-.63,.12v-3.73c.67-.1,1.34-.23,2.01-.3,.36-.04,.62,.2,.71,.56,.18,.69-.16,1.37-.83,1.63-.27,.1-.56,.14-.84,.22-.13,.03-.25,.07-.41,.11Zm.03-1.77v1.22c.39-.11,.75-.18,1.08-.31,.58-.26,.44-1.22-.32-1.05-.25,.04-.5,.1-.76,.15Z"/><path class="cls-3" d="M126.6,545.86v1.41c-.24-.09-.42-.15-.6-.21v-3.63c.06-.02,.1-.04,.13-.03,2.4,.16,3.91,3.94,.47,2.47Zm.02-1.77v1.21c.23,.09,.45,.17,.67,.25,.21,.07,.44,.14,.6-.07,.25-.33-.02-.78-.31-.97-.29-.15-.59-.27-.96-.42Z"/><path class="cls-3" d="M135.07,545.35c.41-.03,.39,.63,.85,.46,.16-.06,.28-.33,.51-.11-.11,.94-1.37,.39-1.37-.35Z"/><path class="cls-3" d="M165.03,498.19c1.25,.75,2.27,1.69,2.55,3.2,.57,3.13-.88,6.99-4.75,8.28-.92,.3-1.86,.52-2.83,.5-.03,0-.07-.02-.14-.05v-2.99h1.55c.12-.81-.36-1.27-1.61-1.56,0-1.46,0-2.94,.04-4.44,.75,.39,.76,1.03,.69,1.81h2.26v.63h-2.25v1.64c.71,.11,1.17,.57,1.45,1.22,.18,.43,.31,.87,.22,1.4h-1.7v1.39c.61,.12,1.22,.08,1.81-.08,2.6-.69,4.22-2.38,4.89-4.97,.38-1.66-1.75-2.68-1.71-4.42-.1-.54-.12-1.1-.47-1.56h0Z"/><path class="cls-3" d="M164.91,502.35c-.12-.04-.16-.04-.18-.06-.71-.65-1.46-1.27-1.95-2.12-.22-.38-.36-.82-.51-1.24-.19-.56-.35-1.13-.52-1.7,1.47,.96,2.86,1.98,3.09,3.91,.05,.38,.05,.77,.07,1.21Z"/><path class="cls-3" d="M161.85,501.76c-1.11-.89-2.25-1.73-2.66-3.22-.11-.39-.32-.76-.49-1.13-.04-.08-.08-.17-.14-.3,1.72,.88,3.13,1.94,3.33,4.01,.02,.2,.05,.4,.07,.6-.04,.01-.07,.03-.11,.04Z"/><polygon class="cls-3" points="165.02 498.19 165.02 498.17 165.03 498.19 165.02 498.19"/><path class="cls-3" d="M140.32,536.46v-13.88h.83c.02,.24,.05,.47,.07,.72,.87,.1,1.73,0,2.6,.05,.74,.02,1.45,.19,2.09,.58,.88,.54,1.32,1.37,1.49,2.37,.05,.3,.08,.6,.12,.9,.09,.64,.46,1.06,1.03,1.32,.27,.13,.56,.23,.86,.34,.2-.12,.4-.24,.64-.39,.17,.22,.33,.44,.54,.71-3.43,2.42-6.82,4.82-10.28,7.26Zm2.04-2.59v-9.69h-1.13v10.52c.41-.3,.75-.55,1.13-.83Zm2.33-1.65c.11-2.63-.07-5.27,0-7.89-.48-.21-.9-.18-1.34-.11v8.91c.46-.32,.86-.59,1.33-.91Zm1.01-7.26v6.57c.99-.7,1.92-1.35,2.89-2.03-1.31-.48-1.87-1.61-1.99-2.92-.12-.62-.31-1.2-.9-1.61Z"/><polygon class="cls-3" points="147.32 522.61 147.31 522.63 147.32 522.61 147.32 522.61"/><path class="cls-3" d="M155.36,533.47c.53-.24,.9-.05,1.19,.44,.24-.38,.49-.71,.93-.74,.43-.02,.72,.25,.96,.62,.25-.4,.5-.76,1.07-.65v1.23h-4.58c.15-2.05,1.86-3.4,3.71-3.97,0-.16,.03-.3,.03-.44,0-.82,.03-1.63,0-2.45-.04-1.44,.98-2.25,2.09-2.46,.14-.03,.28-.06,.45-.1v-.86c-.09-.04-.18-.08-.32-.15,.12-.06,.21-.1,.31-.15,.03-.11,.07-.22,.1-.34,.03,0,.06,0,.09,0,.03,.11,.06,.22,.09,.34,.08,.03,.17,.07,.31,.12-.13,.07-.22,.12-.32,.17v.84c.19,.04,.37,.08,.55,.11,1.02,.19,2,.96,2.02,2.25,0,.77,.04,1.53,.07,2.32,.1,.05,.19,.09,.32,.16,.02-.15,.03-.25,.04-.35,.02-.74-.03-1.5,.08-2.23,.16-1.11,.14-2.22,.16-3.33,.01-.54,.39-.95,.95-1.12,.12-.03,.23-.06,.38-.09,.01-.16,.02-.31,.03-.47-.09-.06-.17-.11-.23-.15,.18-.05,.35-.1,.52-.15-.07-.07-.14-.15-.21-.22,.11,.1,.22,.21,.34,.33-.07,.06-.14,.12-.22,.19v.44s.05,.05,.07,.06c1.66,.4,.99,2.22,1.13,3.49,0,.04,.01,.07,.02,.13,.09,.04,.18,.08,.31,.14v2.74c-.85,.34-.76,1.36-1.27,1.96-.46,.32-.96,.61-1.53,.62-1.21,.03-2.41,0-3.62,0-.11,0-.21-.03-.37-.05,.03-.38,.06-.74,.09-1.16-.35,0-.71,0-1.07,0-1.43-.04-2.68,.41-3.72,1.4-.44,.42-.78,.92-.93,1.55Zm8.41-6.27c.06-.6-.29-1.27-.89-1.62-1.47-.95-3.94-.28-4.01,1.7,.57-.39,1.07-.38,1.54,.09,.28-.27,.57-.44,.95-.44,.39,0,.65,.24,.92,.49,.44-.48,.94-.54,1.49-.22Zm1-.61c-.02,.08-.04,.14-.04,.2-.02,1.02-.04,2.05-.06,3.07,0,.07,0,.16,.03,.21,.3,.41,.42,.87,.43,1.37h.28c0-1.13,0-2.25,0-3.37,.34-1.55,1.75-.31,1.35,.82,0,.32,0,.64,0,1.01,.31-.34,.58-.63,.86-.93v-2.37h-2.85Zm-2.61,2.98c0-.53,0-1.09,0-1.66,0-.08-.02-.17-.05-.25-.21-.82-1.69-.63-1.63,.27,.01,.81-.04,1.6,.02,2.41,.34,0,.64,.11,.91-.11,.23-.2,.46-.4,.75-.65Zm1,1.66c.51-.53,1.07-.7,1.7-.15,0-.55-.32-1.05-.84-1.27-.78-.33-1.53-.23-2.2,.29-.46,.36-.64,.76-.54,1.12,.82-.85,1.38-.75,1.89,0Zm2.55-7.21s.02-.01,.03-.02h.94v.05c.17-.06,.34-.12,.51-.17,.04-.38-.16-.7-.52-.88-.5-.24-1.13-.14-1.5,.21-.25,.25-.31,.5-.22,.72,.27,.03,.52,.05,.76,.08Zm.22,.1c-.16,.77-.07,1.49-.07,2.21h.67v-2.1c-.17-.03-.35-.06-.6-.11Z"/><path class="cls-3" d="M168.37,529.39v4.89h-2.94v-1.91c.22-.3,.53-.53,.9-.63,.48-.13,.73-.44,.83-.91,.12-.59,.46-1.04,.98-1.35,.05-.03,.11-.05,.23-.09Z"/><path class="cls-3" d="M164.37,534.33h-4.07c0-.68,.28-1.2,.77-1.59,.65-.53,1.39-.62,2.16-.27,.75,.35,1.06,.99,1.14,1.86Zm-.53-.98c-.11-.47-.78-.89-1.5-.87-.81,.02-1.53,.53-1.66,1.17,.41-.16,.77-.12,1.14,.12,.44-.48,.59-.49,1.01-.14,.37-.1,.69-.19,1.01-.28Z"/><path class="cls-3" d="M142.24,503.57c.1-.04,.18-.08,.29-.12,.32-2.23,.64-4.45,.96-6.7,.14-.06,.27-.12,.42-.18,.13,.05,.26,.11,.42,.18,.32,2.22,.64,4.45,.96,6.68,.1,.05,.2,.1,.29,.15,.04,.2,.09,.4,.14,.64,.17,.02,.35,.03,.6,.06-.26,.64-.51,1.25-.77,1.9,.18,.03,.32,.06,.5,.09-.02,.16-.05,.32-.07,.48-.13,.03-.23,.06-.37,.09-.06,1.12-.11,2.22-.17,3.33,.17,.13,.34,.25,.53,.39v.78c-.27,.12-3.6,.15-4.09,.03v-.81c.14-.1,.3-.23,.51-.39-.05-1.08-.11-2.2-.16-3.32-.13-.04-.23-.07-.37-.11-.03-.14-.06-.3-.09-.47,.18-.03,.32-.05,.52-.09-.26-.63-.51-1.25-.78-1.89,.23-.03,.4-.05,.6-.07,.04-.21,.08-.41,.13-.65Zm.48,4.83v1.18h2.39v-1.18h-2.39Zm-.45-3.43h3.29c.07-.12,.14-.22,.22-.36h-3.73c.09,.14,.15,.24,.22,.36Zm.37,3.11h2.55c0-.15,.02-.26,.02-.38h-2.62c.01,.14,.03,.25,.04,.38Zm2.76-4.17h-2.96c-.02,.09-.04,.16-.07,.28h3.09c-.02-.11-.04-.17-.06-.28Zm-2.37,2.66c.47-.89,1.28-.9,1.77,0h.59c-.14-.14-.3-.19-.42-.3-.13-.12-.21-.29-.34-.42-.8-.79-1.62,.12-2.16,.73h.55Zm1.51,.36c0-.35-.29-.69-.61-.7-1.59,.29,.27,2.45,.61,.7Zm.72,3.53c-.04-.14-.07-.23-.09-.34h-2.52c-.02,.11-.04,.21-.07,.34h2.68Zm-.8-10.65c-.19-1.39-1.96,.21-.56,.5,.29,0,.55-.22,.56-.5Zm-1.7,3.66h2.34c-.03-.11-.04-.18-.06-.26h-2.23c-.01,.09-.03,.15-.04,.26Z"/><path class="cls-3" d="M152.83,511.43c.29,.47,.56,.9,.83,1.33,.47,.75,.6,1.58,.57,2.45-.03,1.01-.27,1.97-.58,2.92-.24,.73-.5,1.45-.38,2.24-1.56-1.6-2.15-3.88-1.2-5.95,.1-.26,.2-.52,.32-.78,.32-.69,.52-1.42,.46-2.22Z"/><path class="cls-3" d="M149.29,522.16c-.28-.43-.57-.85-.88-1.33h9.35c-.31,.47-.59,.89-.88,1.33h-7.59Z"/><path class="cls-3" d="M154.8,513.39c1.04,.72,1.66,1.69,1.65,2.99,0,.6-.17,1.18-.45,1.71-.27,.52-.56,1.02-.84,1.53h-.01s.02,0,.02,0c-.16,.34-.31,.68-.48,1.04-.39-.43-.51-.9-.49-1.43,.26-1.93,1.99-3.47,.75-5.47-.04-.13-.1-.25-.15-.37h0Z"/><path class="cls-3" d="M151.58,513.39c-.19,.45-.42,.88-.58,1.34-.45,1.3-.4,2.61,.09,3.89,.25,.64,.55,1.26,.83,1.9-.76-.54-1.52-1.11-2.03-1.93-1.26-1.87-.04-4.12,1.68-5.19h0Z"/><path class="cls-3" d="M151.57,513.4s0,0,0,0h0Z"/><path class="cls-3" d="M154.8,513.39h0s0,0,0,0Z"/><path class="cls-3" d="M152.95,488.07c.02-.15,.03-.28,.05-.45,.14-.01,.28-.02,.45-.04,.03,.18,.06,.33,.1,.52,.93,.09,1.41,.63,1.35,1.57-.05,.83-.35,1.12-1.35,1.37-.02,.13-.04,.27-.07,.46-.15,0-.29,.01-.46,.02-.03-.18-.05-.32-.08-.49-.44-.06-.86-.16-1.13-.57-.49-1.06-.36-2.02,1.14-2.4Zm.58,2.48c.56,0,.84-.36,.83-1.01-.01-.61-.31-.94-.83-.93v1.94Zm-.59,0v-1.95c-1.11-.06-1.08,2.02,0,1.95Z"/><path class="cls-3" d="M160.23,490.96h-.51v-1.71s-.07-.02-.11-.03c-.34,.58-.68,1.16-1.03,1.74h-.55v-2.78h.46v1.8s.07,.02,.1,.02c.36-.61,.72-1.22,1.08-1.83h.55v2.78Z"/><path class="cls-3" d="M165.73,490.96h-.48v-1.12c-.37-.1-.6-.01-.78,.25-.19,.29-.39,.58-.59,.87h-.6c.25-.46,.49-.86,.87-1.21-.1-.04-.16-.07-.23-.1-.33-.14-.49-.38-.47-.74,.1-1.07,1.51-.62,2.28-.79v2.84Zm-.53-2.37c-.45,.05-1.15-.21-1.2,.4,.05,.58,.78,.3,1.2,.36v-.76Z"/><path class="cls-3" d="M148.62,489.58c.08,1.92-2.89,1.95-2.76-.02-.11-1.97,2.85-1.92,2.76,.02Zm-2.21-.04c.24,2.58,2.89-.26,1.03-.97-.63-.11-1.03,.24-1.03,.97Z"/><path class="cls-3" d="M142.86,488.87c-.23,.07-.36,.1-.48,.13-.12-.13-.21-.26-.34-.35-.35-.24-.89-.09-.99,.32-.09,.35-.07,.74-.03,1.11,.05,.59,1.03,.7,1.24,.13,.03-.05,.06-.1,.11-.18,.15,.04,.29,.08,.44,.12-.11,1.09-1.76,1.19-2.21,.28-.3-.6-.29-1.2,.05-1.78,.34-.58,1.33-.75,1.84-.31,.15,.12,.23,.32,.39,.53Z"/><path class="cls-3" d="M144.81,509.28h-1.76c-.01-.18-.03-.34-.05-.56,.62-.08,1.2-.05,1.81-.02v.58Z"/><path class="cls-3" d="M143.57,507.03c.24-.03,.45-.06,.67-.08,.01,.44-.55,.54-.67,.08Z"/><path class="cls-3" d="M144.09,506.45c-.01,.11-.02,.22-.03,.33-.05,.03-.09,.06-.14,.09-.07-.09-.14-.18-.27-.34,.18-.08,.27-.12,.36-.15,.03,.03,.05,.05,.08,.08Z"/></g></g><g id="NCF"><path class="cls-3" d="M251.33,497.15l-.53-.02c.11-.15,.21-.3,.28-.46l.25,.47h0Zm-1.3,.13c-.43,.39-.98,.72-1.47,1-1.35,.77-2.17,.89-2.62,.86-.27-.02-.61-.11-.77-.44-.13-.28-.14-.66-.03-1.07,.03-.1,.08-.24,.15-.4,.21-.49,.53-1.24,.42-2.02-.09-.64-.86-1.58-1.34-1.76-.28-.11-.72-.11-.98-.01-.43,.16-.6,.45-.64,.86-.15-.16-.26-.36-.3-.6-.1-.5,.09-1.07,.5-1.5l-.17-.4c-1.03,.01-1.56,.23-2.1,.69-.14-.51-.1-.92,0-1.47,.35-.44,.62-.92,.79-1.38,.51,.94,1.61,1.57,2.92,1.67,1.38,2.12,2.4,3.32,3.12,3.66,.44,.21,1.2,.25,1.73,.19,.78-.08,1.31,.05,1.45,.37,.33,.71-.26,1.4-.65,1.75h0Zm-1.39,1.49s.12-.06,.15-.08c.15-.09,.35-.21,.51-.31l-.05,.73-.61-.34h0Zm-2.57,.85c.17,0,.35-.02,.54-.05l-.28,.45-.26-.4h0Zm-7.88,24v-6.45h-1.65v6.45c-4.88-.31-8.46-3.41-9.4-7.97l.26-.19c.24,.02,.49,.04,.76,.04,.08,0,.17,0,.26,0l.74,1.03,.4-.02,.65-1.18c.23-.04,.45-.09,.66-.16,.05-.01,.09-.03,.14-.05l1.2,.46,.32-.24-.11-1.37c.07-.17,.11-.36,.11-.56,0-.4-.26-.97-1.48-1.39-.43-.15-1.01-.49-1.29-.77-.52-.52-.88-1.27-1.1-2.29-.13-.61-.16-1.53,.16-2.3l1.19-1.16s.01,.03,.02,.04c.28,.53,.77,.92,1.48,1.13l.27-.34c-.41-.73-.41-1.4-.01-1.96,.03,.68,.33,1.42,.84,1.96,.45,.49,1.23,.77,1.98,.77,.28,0,.55-.04,.8-.12v-.44c-.69-.27-1.12-.81-1.13-1.43-.01-.47,.19-.85,.75-1.39,.43-.41,.72-1.28,.69-2.07,0-.13-.02-.26-.04-.4,.5-.06,.92-.2,1.28-.41-.09,.56-.36,.85-.96,1.11l-.1,.36c.32,.43,1.2,.59,1.77,.32,.71-.34,1.14-.75,1.43-1.39,.02,.07,.03,.14,.03,.21,.02,.58-.5,1.17-1.24,1.4l-.07,.41c.21,.15,.49,.26,.81,.32-.09,.28-.29,.49-.71,.78-.86,.59-1.26,1.45-1.25,2.68l.43,.13c.35-.52,.69-.84,1.15-1.02-.41,.51-.47,1.15-.2,1.91h.44c.29-.72,.55-.81,.78-.8,.36,0,.62,.24,.8,.7,.19,.5,.42,1.54,.44,2.36,.01,.51-.27,1.04-.55,1.36-.34,.4-.53,.86-.53,1.29,0,.35,.15,.66,.44,.91l.23,1.23,.37,.15,1.08-.78c.24,.03,.5,.04,.78,.04,.09,0,.19,0,.29,0l.73,1,.4-.02,.64-1.16c.23-.04,.45-.09,.67-.16,.06-.02,.12-.04,.17-.06l1.18,.45,.32-.24-.11-1.38c.06-.17,.1-.35,.1-.53,0-.4-.26-.97-1.48-1.39-.43-.15-1.01-.5-1.29-.77-1.31-1.3-2.15-2.67-2.44-3.97-.12-.51-.14-.92-.07-1.29,.35,.24,.79,.39,1.3,.41l.18-.4c-.26-.27-.41-.66-.45-1.06,.16,.34,.4,.61,.7,.82,.73,.5,1.76,.53,2.89,.09l-.08-.46c-.89-.03-1.37-.72-1.37-1.21,0-.36,.06-.67,.14-1.07,.03-.15,.06-.3,.09-.47,.07-.38,.15-.95,.05-1.59-.24-1.68-1.53-2.97-3.3-3.29-2.25-.41-6.13-.19-9.4,1.24-.06-.02-.12-.03-.17-.05,.69-.99,1.74-1.44,3.55-1.55,2.69-.16,4.13-1.09,5.06-3.31l.13,.03c.49-.46,.85-.7,1.56-.78-.28,.47-.39,1-.29,1.49,.1,.53,.42,.94,.9,1.17l.34-.23c-.04-.66,.11-.77,.33-.85,.17-.06,.48-.05,.66,.01,.3,.11,.97,.91,1.04,1.38,.09,.65-.19,1.3-.39,1.77-.07,.18-.14,.33-.17,.45-.1,.36-.17,.9,.06,1.39,.13,.29,.38,.5,.7,.61l.69,1.07h.4s.74-1.19,.74-1.19c.18-.06,.37-.14,.57-.22v14c0,5.89-3.93,10.08-9.66,10.45h0Zm-11.39-8.27l-.5,.36-.13-.58c.16,.07,.44,.17,.63,.22h0Zm2.83,.05l-.3,.54-.35-.48s.02,0,.03,0c.2-.02,.4-.04,.61-.06h0Zm2.41-.41l-.42-.16c.14-.08,.27-.18,.39-.28l.03,.44h0Zm-7.78-6.67c-.05-.33-.01-.62,.11-.87,.22-.43,.72-.76,1.49-.97l.06-.43c-.57-.33-1.2-.37-1.78-.11,.19-.42,.64-.68,1.73-.8,.89-.1,1.51-.45,1.87-1.05,.27,.1,.57,.16,.9,.16h0c.44,0,.85-.1,1.21-.29-.06,.37-.06,.71,0,1.03l-1.38,1.35-.05,.08c-.32,.75-.4,1.74-.2,2.63,.24,1.11,.64,1.94,1.23,2.53,.33,.33,.97,.71,1.47,.88,.74,.25,1.16,.6,1.16,.95,0,.78-.83,1.16-1.33,1.31-.55,.17-1.2,.24-1.76,.29-1.55,.13-2.34-.11-2.73-.33-.23-.13-.51-.36-.51-.72,0-.42,.35-.72,.51-.84,.4-.29,.72-.77,.83-1.26,.16-.72,.26-3.04-.14-3.66-.26-.39-.66-.57-1.27-.57-.45,0-1,.29-1.4,.69h0Zm3.06-4.46c-.11,.18-.25,.32-.43,.44v-1.19c.41-.1,.88-.36,1.28-.74-.22,.43-.56,.77-.98,.94l-.08,.38c.06,.06,.13,.12,.2,.17h0Zm13.55,10.47l-.41,.29-.08-.45c.15,.06,.31,.12,.49,.16h0Zm2.9,.05l-.29,.52-.33-.46s0,0,0,0c.2-.02,.4-.04,.61-.06h0Zm2.42-.43l-.4-.15c.14-.08,.26-.18,.37-.28l.03,.43h0Zm-1.31-.27c-.55,.17-1.2,.24-1.76,.29-1.55,.13-2.34-.11-2.73-.33-.23-.13-.51-.36-.51-.72,0-.31,.15-.66,.42-.98,.16-.19,.68-.86,.66-1.67-.02-.88-.26-1.97-.47-2.52-.32-.81-.84-.99-1.23-1-.43,0-.72,.21-.92,.51-.04-.59,.26-1.02,.92-1.38l-.13-.44c-.87,.07-1.45,.3-1.95,.82,.12-.68,.44-1.18,.99-1.55,.49-.34,.79-.63,.92-1.11,.24,0,.5,0,.75-.05,.35-.06,.57-.2,.75-.36,0,.1-.01,.2,0,.31,.02,.41,.17,.78,.43,1.08-.15,.52-.15,1.06,0,1.75,.31,1.38,1.2,2.84,2.57,4.2,.33,.33,.97,.71,1.47,.88,.74,.25,1.16,.6,1.16,.95,0,.78-.83,1.16-1.33,1.31h0Zm.17-9.08c-.65,.11-1.23,.02-1.66-.27-.5-.34-.77-.95-.77-1.75l-.45-.1c-.34,.7-.31,1.64,.03,2.32-.68-.19-1.13-.69-1.16-1.31-.02-.42,.08-.72,.32-.97l-.28-.37c-.33,.16-.5,.36-.66,.53l-.03,.03c-.18,.19-.32,.32-.64,.38-.44,.07-.89,.05-1.24-.05,.67-.37,1.09-1,1.07-1.65-.01-.33-.13-.64-.36-.92l-.41,.08c-.24,.82-.59,1.24-1.36,1.61-.27,.13-.65,.11-.92,0,.66-.38,.92-.92,.92-1.86l-.4-.17c-.35,.34-.84,.55-1.48,.62-.14-.45-.36-.88-.63-1.17-.6-.65-1.29-1.11-2.09-1.42,3.06-1.2,6.56-1.37,8.62-1,1.56,.28,2.71,1.42,2.91,2.89,.08,.57,.01,1.07-.05,1.45-.03,.17-.06,.32-.09,.46-.08,.41-.15,.76-.15,1.16,0,.55,.36,1.14,.95,1.45h0Zm-19.96-7.38c-.99-.47-1.1-1.84-1.1-2.41,0-.73,.41-1.47,.81-1.88,.69-.69,1.63-1.28,2.79-1.98,1.52-.92,2.04-1.77,2.04-3.39s-1.05-2.65-2.82-2.65c-1.09,0-1.87,.58-2.03,1.5h-.78c.13-1.48,1.47-2.28,2.73-2.28,2.56,0,3.71,1.77,3.71,3.53,0,2.7-1.57,3.88-2.95,4.62-.69,.37-1.3,.87-1.69,1.38-.58,.76-.48,1.74,.24,2.52l.31,.03c1.02-.74,1.91-1.24,2.87-1.64,1.76-.72,4.02-3.16,4.02-4.76,0-.33-.01-.77-.07-1.16,.47-.06,.89-.23,1.26-.51-.22,1.24,.23,2.36,.9,3.03l.26,.05c1.19-.52,1.89-1.03,2.45-1.87,.09,1.26,.85,1.98,1.56,2.47h.27c.1-.07,.19-.14,.27-.22-.03,.35,0,.69,.12,1.08-.85,2.19-2.14,3.06-4.73,3.21-2.02,.12-3.23,.68-4,1.87-1.11-.36-2.07-.81-2.98-1.4l-.26,.39c1.15,.75,2.38,1.28,3.88,1.69,.97,.26,1.74,.73,2.43,1.47,.36,.39,.63,1.09,.65,1.72,.02,.66-.21,1.39-.54,1.71-.66,.64-.91,1.12-.9,1.74,.02,.61,.31,1.14,.82,1.52-.62,0-1.29-.23-1.65-.62-.57-.61-.84-1.55-.65-2.22l-.37-.25c-.83,.65-1.11,1.52-.8,2.46-.31-.17-.53-.4-.68-.68-.25-.48-.25-1.12,0-1.86l-.39-.24c-.34,.36-.86,.57-1.42,.57h0c-.34,0-.66-.07-.91-.2,.7-.45,1.17-1.33,1.17-2.25l-.45-.1c-.43,.88-1.32,1.47-1.89,1.47-.49,0-.9-.17-1.17-.47,1.25-.19,1.5-1.24,1.54-1.59l-.47-.06c-.02,.17-.08,.4-.21,.6-1.14-.87-1.98-2.22-1.08-3.6l-.1-.34h0Zm1.81-11.83c1.43,.03,2.25,.82,2.25,2.17,0,1.46-.42,2.16-1.81,2.99-.15,.09-.3,.18-.45,.27v-5.43h0Zm-3.07,6.18c.12-.73-.07-1.39-.55-1.88-.49-.51-.52-1.05-.46-1.42,.1-.57,.49-1.11,.99-1.37h1.11c.52,.31,.88,.77,1.01,1.32,.14,.59,0,1.22-.38,1.79-.49,.72-1.1,1.28-1.72,1.57h0Zm12.73-26.54v6.45h1.65v-6.45c5.73,.37,9.66,4.56,9.66,10.45v12.78c-.76,.5-1.71,.95-2.7,1.26-.04-.19-.09-.36-.15-.53,.6-.01,1.23-.37,1.67-.97,.45-.63,.72-1.63,.09-2.53h-.38c-.61,.75-1.07,1.02-1.77,.98,.24-.33,.46-.81,.49-1.29,.03-.51-.17-.95-.55-1.28l-.34,.04c-.27,.37-.62,.58-.97,.59-.26,0-.5-.11-.65-.31-.27-.35-.37-.65-.28-.86,.09-.22,.37-.28,.53-.3,.56-.07,.97-.34,1.27-.82v-.23s-.34-.66-.34-.66l-.24-.12c-.64,.09-1.29-.05-1.64-.21,.11-.27,.43-.56,.76-.56,.4,0,.8,.17,1.1,.47,.39,.39,1.02,.65,1.61,.65,1.05,0,1.87-.84,1.87-1.91,0-.86-.94-1.54-1.75-1.54l-.2,.1-.19,.28,.14,.36c.25,.06,.43,.22,.55,.49,.07,.16,.07,.31,0,.41-.05,.08-.15,.12-.28,.12-.46,0-.87-.32-1.32-.7-1.12-.94-2.09-.98-3.18-.08,.08-.56,.34-1.05,.58-1.14,.56-.21,1.21-.08,1.98,.38h.26s.41-.32,.41-.32l.09-.19c0-.75-.22-1.36-.64-1.77-.34-.33-.81-.52-1.36-.54-.17-.6-.91-1.41-1.54-1.75l-.11-.03-1.4-.03c-.19-.61-.71-1.21-1.49-1.21s-1.34,.38-1.47,.94c-.79,.04-1.24,.34-1.67,1.07l-.94,1.74c-.67,1.06-1.38,1.38-2.51,1.14l-.26,.12-.1,.19v.24c.34,.49,1.15,1.09,2.16,1.26-.45,.32-.75,.73-.92,1.23l.02,.2c.22,.37,.67,.63,1.23,.69-.15,.31-.39,.5-.72,.54-.55,.08-1.33-.3-1.77-1.18l-.39-.05c-.71,.78-.88,1.74-.48,2.62,.41,.92,1.35,1.55,2.48,1.71-.99,1.02-1.16,2.09-1.09,3.36l.18,.22c.42,.09,.8,.14,1.15,.14,.06,.37,.07,.81,.07,1.14,0,1.28-2.02,3.62-3.73,4.33-.72,.3-1.4,.65-2.13,1.12v-2.03c.24-.19,.51-.37,.8-.52,1.37-.73,3.2-2.05,3.2-5.03,0-2.29-1.63-3.91-4-3.99v-8.2c0-5.89,3.93-10.08,9.66-10.45h0Zm9.63,14.13c-.1-.22-.23-.39-.39-.53,.48,.14,.94,.54,.94,1.01,0,.81-.62,1.44-1.4,1.44-.53,0-1.02-.26-1.28-.51-.39-.39-.91-.61-1.43-.61-.48,0-.97,.36-1.17,.79-.25-.19-.43-.47-.49-1.03,1.05-1.02,1.84-1.07,2.88-.19,.43,.36,.96,.81,1.63,.81,.29,0,.53-.12,.67-.33,.15-.23,.16-.56,.03-.86h0Zm-1.41,11.69h0c-1.56,0-2.84-.83-3.08-2.02h-.46c-.1,.59-.53,1.74-1.5,2.5-.77-.57-1.46-1.39-1.15-2.99l-.44-.15c-.61,1.29-1.22,1.9-2.58,2.52-.65-.75-1.01-2.03-.39-3.35l-.4-.24c-.74,.97-1.57,1.25-2.93,.98-.05-1.24,.19-2.22,1.34-3.18l-.15-.42h-.03c-1.17,0-2.18-.57-2.58-1.46-.28-.61-.2-1.27,.2-1.85,.51,.77,1.32,1.23,2.08,1.12,.55-.08,.96-.43,1.16-1,.4-.03,.8-.16,1.16-.37-.14,.71,.06,1.34,.29,1.84l.25,.14c.57-.09,1.59-.54,2.17-1.28,.14,.93,.4,1.53,.83,1.95l.27,.04c.72-.36,1.57-1.11,1.57-2.64h-.47c0,1.18-.6,1.8-1.16,2.13-.38-.45-.58-1.16-.66-2.31l-.46-.04c-.21,.84-1.31,1.46-2,1.64-.33-.83-.29-1.45,.11-2.11l-.38-.28c-.51,.57-1.23,.88-1.93,.81-.38-.04-.7-.18-.87-.39,.23-.56,.68-.97,1.41-1.26l-.12-.45c-1.04,.12-1.95-.36-2.42-.84,1.15,.15,1.95-.29,2.67-1.42l.95-1.74c.38-.65,.71-.84,1.47-.84l.24-.24c0-.48,.53-.7,1.02-.7,.56,0,.97,.51,1.08,1.02l.23,.19,1.52,.03c.63,.37,1.28,1.21,1.28,1.54l.24,.24c.52-.01,.93,.12,1.22,.41,.31,.3,.48,.75,.5,1.32l-.19,.14c-.85-.47-1.58-.58-2.25-.34-.59,.22-.95,1.25-.91,2.04,.06,1.22,.6,1.58,1.14,1.85,.46,.23,1.16,.34,1.79,.29l.21,.39c-.21,.29-.48,.44-.86,.49-.45,.06-.77,.27-.9,.59-.11,.26-.14,.7,.35,1.33,.24,.32,.62,.5,1.03,.49,.43,0,.84-.21,1.17-.57,.16,.2,.23,.45,.22,.72-.03,.58-.43,1.15-.63,1.29l.09,.42c1.04,.21,1.71-.01,2.45-.83,.27,.63,.07,1.28-.24,1.71-.43,.59-1.07,.89-1.6,.73l-.27,.34c.29,.55,.42,1.25,.36,2.04h0Zm5.2-6.84c.68-.38,1.42,.16,1.79,.52,.42,.4,.79,.93,1.11,1.4,.86,1.29,1.05,2.1,1.05,2.55,0,.27-.07,.62-.38,.8-.27,.15-.65,.19-1.06,.11-.1-.02-.24-.07-.41-.12-.51-.17-1.28-.43-2.05-.27-.62,.13-1.57,.84-1.74,1.44-.13,.45-.13,1.26,.31,1.88-.65,.13-1.19-.05-1.97-.94l-.41,.11c-.13,.67,.03,1.36,.4,1.82-.05,0-.12,.01-.2,.01-.42-.52-.9-1.18-1.44-2,0,0,.02,0,.03,0l.22-.21c.04-.39,.05-.76,.01-1.12,1.9-.57,3.73-1.7,4.39-2.73,.29-.46,.27-1.3,.08-1.82-.27-.73-.05-1.26,.27-1.43h0Zm1.44-.83l.06,.54c-.18-.11-.35-.18-.52-.23l.46-.3h0Zm2.12,1.99l-.25,.53s-.02-.02-.02-.04c-.11-.16-.22-.33-.34-.49h.61Zm-6.37,8.02c-.3-.24-.49-.66-.53-1.12,.41,.39,.8,.61,1.22,.7v1.82c-.05-.02-.1-.03-.14-.05-.26-.12-.57-.39-.94-.79,.17-.04,.3-.1,.4-.19l-.02-.36h0Zm7.57-5.24l-.36,.28c-.02-.16-.05-.34-.1-.52l.47,.25h0Zm11.02-.46v-14.37h-1.65v14.37c0,3.59-2.22,6.01-5.53,6.01h-9.07v-3.77c.21-.14,.43-.24,.61-.28,.64-.14,1.31,.09,1.8,.26,.18,.06,.34,.11,.46,.14,.37,.07,.91,.11,1.39-.16,.31-.17,.51-.47,.59-.85l.97-.73-.03-.4-1.25-.66c-.12-.28-.27-.57-.45-.88l.53-1.15-.22-.33h-1.34c-.15-.17-.3-.35-.47-.51-.03-.03-.06-.06-.09-.09h0l-.16-1.36-.36-.17-1.32,.87c-.14,.03-.28,.08-.41,.16-.08,.05-.16,.11-.24,.18v-8.3c0-6.75-4.71-11.72-11.3-12.1v-3.91h-1.65v3.91c-6.6,.38-11.3,5.35-11.3,12.1v8.52c-.94,.44-1.68,1.32-1.74,2.52-.59,.34-1.04,.98-1.16,1.67-.12,.67,.09,1.32,.59,1.83,.4,.41,.54,.99,.39,1.63l.11,.26,.24,.14h.21c.54-.21,.99-.57,1.36-.94v.82c-.28,.22-.55,.44-.78,.67-.25,.25-.46,.56-.62,.9h-13.2v-20.37h-1.65v42.39h1.65v-20.37h12.88c.07,1.1,.47,1.94,1.13,2.37-.59,1.09-.35,2.31,.59,3.36v.88c-.09,.01-.18,.02-.28,.02l-.21,.34c.12,.25,.29,.46,.49,.62v2.02c-.97,.19-1.6,.6-1.69,1.65l.38,.21c.38-.29,.78-.4,1.17-.35-.55,.25-.94,.58-1.15,.98-.24,.47-.25,1.04-.03,1.68l.42,.04c.19-.32,.55-.61,.89-.75v4.95c0,.26,0,.52,.02,.78h0s0,.1,0,.14c.41,6.27,4.98,10.81,11.27,11.18v3.91h1.65v-3.91c6.6-.38,11.3-5.35,11.3-12.1v-13.63l.16-.08,.12-1.37c.21-.14,.41-.29,.59-.46,.01-.01,.02-.02,.04-.04l1.34,.04,.22-.35-.69-1.31c0-.22-.04-.44-.14-.65-.03-.06-.07-.12-.11-.18h7.56c3.31,0,5.53,2.41,5.53,6.01v14.37h1.65v-14.37c0-3.14-1.43-5.61-3.72-6.83,2.29-1.22,3.72-3.7,3.72-6.83h0Z"/><path class="cls-3" d="M239.35,475.71c-.12,0-.2,0-.2,0,0-.51,.14-.71,.62-.71,.37,0,.87,.43,.92,.71,0,0-.02,.17-.14,.17-.01,0-.03,0-.05,0-.4-.14-.89-.17-1.15-.17h0Zm1.76,.06v-.07s0-.07,0-.07c-.1-.51-.79-1.05-1.34-1.05-1.04,0-1.04,.85-1.04,1.13v.45l.45-.03s.07,0,.17,0c.23,0,.67,.02,1.01,.14,.06,.02,.13,.03,.19,.03,.29,0,.51-.22,.56-.54h0Z"/><polygon class="cls-3" points="214.49 542.01 214.49 549.13 213.47 549.13 213.47 545.86 210.03 545.86 210.03 549.13 209.01 549.13 209.01 542.01 210.03 542.01 210.03 545 213.47 545 213.47 542.01 214.49 542.01 214.49 542.01"/><path class="cls-3" d="M219.02,546.66c-.21-.01-.24-.02-.46-.02-1.28,0-1.94,.32-1.94,.99,0,.48,.41,.87,1,.87,1.05,0,1.39-.87,1.39-1.84h0Zm-1.62,2.6c-1.09,0-1.79-.68-1.79-1.62,0-1.38,1.44-1.71,2.97-1.71,.12,0,.24,0,.43,.02-.01-.88-.42-1.36-1.3-1.36-.57,0-1.01,.16-1.54,.56l-.06-.85c.51-.31,1.1-.53,1.76-.53,1.07,0,1.66,.45,1.91,1.12,.12,.32,.17,.72,.17,1.46v1.01c0,.59,0,1.18,.04,1.77h-.88c-.01-.18-.01-.26-.01-.4,0-.18,0-.28,.01-.5-.39,.69-.91,1.03-1.72,1.03h0Z"/><path class="cls-3" d="M225.87,543.91v3.98c0,.39,.32,.55,.87,.55v1.98h-.92v-1.29c-.52,0-.82-.37-.82-.81-.42,.59-1.02,.89-1.76,.89-1.59,0-1.94-1.18-1.94-2.53v-2.77h.97v2.43c0,.78,.02,1.12,.13,1.39,.18,.47,.55,.71,1.02,.71,.88,0,1.47-.76,1.47-2.24v-2.29h.98Z"/><path class="cls-3" d="M231.98,543.92v3.28c0,.65,.04,1.28,.08,1.92h-.91l-.04-.81c-.41,.59-1.02,.89-1.76,.89-1.58,0-1.94-1.18-1.94-2.53v-2.76h.98v2.43c0,.77,.02,1.12,.12,1.38,.18,.47,.54,.71,1.02,.71,.89,0,1.48-.75,1.48-1.88v-2.64h.97Z"/><path class="cls-3" d="M237.63,546.56c-.01-1.19-.68-2.01-1.65-2.01s-1.66,.82-1.66,1.98,.69,1.97,1.66,1.97,1.65-.8,1.65-1.94h0Zm1.02-.02c0,1.6-1.11,2.73-2.69,2.73s-2.66-1.15-2.66-2.73,1.11-2.77,2.67-2.77,2.67,1.15,2.68,2.77h0Z"/><polygon class="cls-3" points="243.24 549.13 243.24 546.77 240.75 546.77 240.75 549.13 239.77 549.13 239.77 543.91 240.75 543.91 240.75 546.01 243.24 546.01 243.24 543.91 244.22 543.91 244.22 549.13 243.24 549.13 243.24 549.13"/><path class="cls-3" d="M248.8,546.66c-.21-.01-.24-.02-.46-.02-1.28,0-1.94,.32-1.94,.99,0,.48,.41,.87,1,.87,1.05,0,1.39-.87,1.39-1.84h0Zm-1.62,2.6c-1.09,0-1.79-.68-1.79-1.62,0-1.38,1.44-1.71,2.97-1.71,.12,0,.25,0,.43,.02-.01-.88-.42-1.36-1.3-1.36-.57,0-1.01,.16-1.54,.56l-.06-.85c.51-.31,1.1-.53,1.76-.53,1.07,0,1.66,.45,1.91,1.12,.12,.32,.17,.72,.17,1.46v1.01c0,.59,0,1.18,.04,1.77h-.88c-.01-.18-.01-.26-.01-.4,0-.18,0-.28,.01-.5-.39,.69-.91,1.03-1.72,1.03h0Z"/><path class="cls-3" d="M250.35,549.13l1.88-5.22h1.11l1.93,5.22h-1.06l-1.2-3.45c-.09-.27-.13-.4-.25-.87-.09,.3-.12,.56-.22,.83l-1.24,3.48h-.96Z"/><path class="cls-3" d="M256.56,546.01h2.77c-.09-.78-.45-1.47-1.34-1.47-.76,0-1.31,.56-1.43,1.47h0Zm-.01,.76c.12,1.03,.79,1.68,1.74,1.68,.57,0,1.09-.17,1.64-.5v.93c-.6,.27-1.09,.38-1.68,.38-1.64,0-2.67-1.08-2.67-2.8,0-1.62,.99-2.69,2.46-2.69,1.77,0,2.27,1.49,2.27,3h-3.75Z"/><polygon class="cls-3" points="264.89 549.13 264.89 546.77 262.4 546.77 262.4 549.13 261.42 549.13 261.42 543.91 262.4 543.91 262.4 546.01 264.89 546.01 264.89 543.91 265.87 543.91 265.87 549.13 264.89 549.13 264.89 549.13"/><path class="cls-3" d="M228.78,561.06c.96,0,1.65-.87,1.65-1.99,0-1.19-.69-2.08-1.65-2.08h-.11v4.07h.11Zm-1.09-4.07h-.1c-.97,0-1.66,.89-1.66,2.05s.68,2.02,1.66,2.02h.1v-4.07h0Zm.98,6.83h-.98v-2.05h-.12c-1.55,0-2.66-1.15-2.66-2.73s1.1-2.77,2.67-2.77h.11v-1.76h.98v1.76h.1c1.57,0,2.68,1.15,2.68,2.77s-1.11,2.73-2.69,2.73h-.09v2.05h0Z"/><path class="cls-3" d="M236.67,559.07c-.01-1.19-.68-2.01-1.65-2.01s-1.66,.82-1.66,1.98,.69,1.97,1.66,1.97,1.65-.8,1.65-1.94h0Zm1.02-.02c0,1.6-1.11,2.73-2.69,2.73s-2.66-1.15-2.66-2.73,1.11-2.77,2.67-2.77,2.67,1.15,2.68,2.77h0Z"/><polygon class="cls-3" points="242.28 561.64 242.28 559.28 239.79 559.28 239.79 561.64 238.81 561.64 238.81 556.43 239.79 556.43 239.79 558.53 242.28 558.53 242.28 556.43 243.26 556.43 243.26 561.64 242.28 561.64 242.28 561.64"/><path class="cls-3" d="M247.06,557.16c-.87,0-1.48,.79-1.48,1.89s.59,1.78,1.45,1.78c.9,0,1.52-.76,1.52-1.82s-.65-1.85-1.49-1.85h0Zm2.45-.75v4.32c0,1.9-.32,3.16-2.55,3.16-.7,0-1.28-.1-1.98-.35l.09-.95c.68,.32,1.25,.48,1.87,.48,.71,0,1.22-.29,1.47-.79,.22-.47,.16-1,.19-1.5-.39,.57-.99,.87-1.74,.87-1.38,0-2.3-1.03-2.3-2.59s.93-2.73,2.28-2.73c.8,0,1.48,.39,1.76,.99,0-.06,.01-.1,.01-.12v-.14s-.01-.65-.01-.65h.91Z"/><path class="cls-3" d="M216.58,573.01l-.88,2.53h-.9l.63-2.53h1.15Zm-1.94,0l-.89,2.53h-.89l.63-2.53h1.15Z"/><path class="cls-3" d="M221.64,571.19l1.19,2.97h-1.17l-.82-2.18c-.35-.91-.67-1.09-1.48-1.09h-.69v3.27h-1.02v-7.12h1.02v2.99h.89l1.71-2.99h1.18l-1.97,3.14c.57,.11,.91,.41,1.16,1.01h0Z"/><path class="cls-3" d="M227.66,568.94l-1.9,5.27c-.38,1.05-.77,2.16-2.08,2.16-.2,0-.32-.02-.59-.09l.04-.78c.2,.08,.29,.09,.47,.09,.68,0,1-.65,1.17-1.22l-2-5.43h1.05l1.16,3.29c.18,.5,.24,.79,.28,1.08,.04-.29,.13-.58,.22-.84l1.23-3.54h.96Z"/><path class="cls-3" d="M227.43,574.16l1.88-5.22h1.11l1.92,5.22h-1.06l-1.2-3.45c-.09-.27-.13-.4-.24-.87-.09,.3-.12,.56-.22,.83l-1.23,3.48h-.96Z"/><path class="cls-3" d="M234.11,568.94l.06,.83c.27-.57,.88-.98,1.62-.98,.79,0,1.32,.42,1.55,1.1,.33-.68,.93-1.1,1.71-1.1,1.57,0,1.76,1.38,1.76,2.61v2.75h-.97v-2.55c0-.7-.03-1-.09-1.22-.13-.46-.44-.71-.9-.71-.57,0-1.02,.43-1.22,1.08-.09,.28-.1,.47-.1,1.19v2.21h-.97v-2.68c0-.65-.01-.89-.08-1.1-.13-.45-.44-.7-.87-.7-.8,0-1.37,.76-1.37,1.8v2.68h-.97v-2.94c0-.76-.01-1.52-.07-2.28h.9Z"/><path class="cls-3" d="M246.54,568.94l-1.9,5.27c-.38,1.05-.77,2.16-2.08,2.16-.2,0-.32-.02-.59-.09l.04-.78c.2,.08,.29,.09,.47,.09,.68,0,1-.65,1.17-1.22l-2-5.43h1.05l1.16,3.29c.18,.5,.24,.79,.28,1.08,.04-.29,.13-.58,.22-.84l1.24-3.54h.96Z"/><path class="cls-3" d="M249.87,569.68c-.88,0-1.55,.8-1.55,1.88s.67,1.85,1.52,1.85,1.46-.79,1.46-1.86c0-1.12-.57-1.87-1.44-1.87h0Zm-1.66-.73l.04,.91c.41-.65,1.04-1,1.81-1,1.36,0,2.26,1.05,2.26,2.62,0,1.66-.91,2.76-2.27,2.76-.84,0-1.42-.33-1.8-1.02,.04,.32,.07,.67,.07,1v2.13h-.97v-5.12c0-.76-.02-1.52-.07-2.28h.92Z"/><path class="cls-3" d="M256.56,571.69c-.21-.01-.24-.02-.46-.02-1.28,0-1.94,.32-1.94,.99,0,.48,.41,.87,1,.87,1.05,0,1.39-.87,1.39-1.84h0Zm-1.62,2.6c-1.09,0-1.79-.68-1.79-1.62,0-1.38,1.44-1.71,2.97-1.71,.12,0,.25,0,.43,.02-.01-.88-.42-1.36-1.3-1.36-.57,0-1.01,.16-1.54,.56l-.06-.85c.51-.31,1.1-.53,1.76-.53,1.07,0,1.66,.44,1.91,1.12,.12,.32,.17,.72,.17,1.46v1.01c0,.59,0,1.18,.04,1.77h-.88c-.01-.18-.01-.26-.01-.4,0-.18,0-.28,.01-.5-.39,.69-.91,1.03-1.72,1.03h0Z"/><path class="cls-3" d="M260.25,569.39l.89-2.51h.89l-.63,2.51h-1.15Zm-1.94,0l.88-2.51h.9l-.64,2.51h-1.14Z"/></g><g><path class="cls-3" d="M298.72,518.48h-.62c-.71,0-1.43,.09-2.08,.34-1.16,.45-1.63,1.35-1.63,1.35v-1.55c0-.08-.06-.15-.15-.15h-3.43c-.08,0-.15,.06-.15,.15v12.72c0,.08,.06,.15,.15,.15h3.43c.08,0,.15-.06,.15-.15v-5.6c0-2.05,1.66-3.72,3.72-3.72h.62c.08,0,.15-.06,.15-.15v-3.26c0-.08-.06-.15-.15-.15Z"/><path class="cls-3" d="M309.26,514.77h0c0-2.08-.44-3.39-1.39-4.61-1.39-1.8-3.61-2.83-5.74-2.83h-11.31c-.08,0-.15,.06-.15,.15v8.67c0,.08,.06,.15,.15,.15h3.43c.08,0,.15-.06,.15-.15v-5.12c0-.08,.06-.15,.15-.15h7.23c2.04,0,3.74,1.78,3.78,3.81,.04,2.08-1.64,3.79-3.72,3.79h-.62c-.08,0-.15,.06-.15,.15v3.26c0,.08,.06,.15,.15,.15h.62c2.05,0,3.72,1.66,3.72,3.72v5.6c0,.08,.06,.15,.15,.15h3.43c.08,0,.15-.06,.15-.15v-5.46c0-1.14-.24-2.37-.83-3.35-.78-1.3-1.9-2.02-2.85-2.28,.96-.24,2.11-.98,2.8-2.13,.54-.91,.88-2.08,.88-3.35Z"/><g><path class="cls-3" d="M337.06,507.33h1.55v1.35c.55-1.09,1.43-1.58,2.62-1.58,.34,0,.68,.03,1.07,.14l-.15,1.58c-.32-.1-.63-.15-.95-.15-1.36,0-2.5,.9-2.5,2.96v4.84h-1.63v-9.13h0Z"/><path class="cls-3" d="M411.28,507.33h1.55v1.35c.55-1.09,1.43-1.58,2.62-1.58,.34,0,.68,.03,1.07,.14l-.15,1.58c-.32-.1-.63-.15-.95-.15-1.36,0-2.5,.9-2.5,2.96v4.84h-1.63v-9.13h0Z"/><g><path class="cls-3" d="M347.62,515.16c-2.03,0-2.96-1.21-3.2-2.61h2.31v-1.41h-2.31c.23-1.29,1.09-2.28,2.31-2.53v-1.47c-2.42,.28-4.01,2.21-4.01,4.71s1.41,4.8,4.87,4.8c1.62,0,3.1-.63,3.92-1.28l-.7-1.24c-.84,.62-2.1,1.02-3.19,1.02Z"/><path class="cls-3" d="M347.75,507.12v1.46c1.26,.17,2.22,1.1,2.31,2.56h-2.31v1.41h3.94c.02-.22,.05-.46,.05-.84,0-2.73-1.67-4.42-3.99-4.6Z"/></g><g><path class="cls-3" d="M365.12,515.13c-1.51-.26-2.63-1.63-2.63-3.26s1.12-2.96,2.63-3.22v-1.54c-2.55,.25-4.28,2.3-4.28,4.76s1.74,4.54,4.28,4.78v-1.52Z"/><path class="cls-3" d="M366.14,507.11v1.54c1.52,.25,2.65,1.62,2.65,3.22s-1.13,3.01-2.65,3.26v1.52c2.54-.24,4.28-2.27,4.28-4.78,0-2.46-1.74-4.52-4.28-4.76Z"/></g><g><path class="cls-3" d="M386.51,515.12c-1.56-.27-2.51-1.64-2.51-3.23s.95-2.96,2.51-3.23v-1.53c-2.42,.19-4.17,2.11-4.17,4.7s1.75,4.63,4.17,4.83v-1.53Z"/><path class="cls-3" d="M390.13,507.33v1.33c-.67-.81-1.55-1.35-2.6-1.5v1.48c1.66,.21,2.7,1.61,2.7,3.24s-1.04,3.06-2.7,3.28v1.48c1.05-.14,1.94-.65,2.6-1.47v1.3h1.57v-9.13h-1.57Z"/></g><g><path class="cls-3" d="M356.94,508.5c.47,.14,.93,.44,1.29,.95l1.04-.99c-.52-.82-1.41-1.27-2.33-1.4v1.44h0Z"/><path class="cls-3" d="M354.79,511.79c.29,.15,.71,.33,1.13,.51v-1.63c-.07-.03-.13-.06-.2-.09-.58-.27-.77-.7-.77-1.07,0-.49,.33-.95,.96-1.07v-1.39c-1.57,.17-2.53,1.2-2.53,2.53,0,.84,.43,1.69,1.4,2.21Z"/><path class="cls-3" d="M355.93,515.2c-.69-.11-1.44-.54-1.92-1.42l-1.17,.9c.69,1.27,1.91,1.88,3.09,1.96v-1.45Z"/><path class="cls-3" d="M357.96,511.58c-.32-.16-.67-.32-1.01-.47v1.64s.08,.04,.11,.06c.48,.26,.84,.61,.84,1.16,0,.5-.35,.96-.95,1.16v1.47c1.56-.26,2.56-1.38,2.56-2.72,0-1.09-.6-1.8-1.55-2.3Z"/></g><g><path class="cls-3" d="M404.02,515.13c-1.51-.26-2.63-1.63-2.63-3.26s1.12-2.96,2.63-3.22v-1.54c-2.55,.25-4.28,2.3-4.28,4.76s1.74,4.54,4.28,4.78v-1.52Z"/><path class="cls-3" d="M405.04,507.11v1.54c1.52,.25,2.65,1.62,2.65,3.22s-1.13,3.01-2.65,3.26v1.52c2.54-.24,4.28-2.27,4.28-4.78s-1.74-4.52-4.28-4.76Z"/></g><path class="cls-3" d="M376.88,507.09c-.7,0-1.33,.17-1.85,.48v1.54c.41-.32,.92-.5,1.51-.5,1.33,0,2.33,.94,2.33,2.78v5.08h1.62v-5.54c0-2.61-1.72-3.83-3.61-3.83Z"/><polygon class="cls-3" points="374.01 507.33 372.38 507.33 372.38 516.45 374.02 516.45 374.02 513.06 374.01 513.06 374.01 507.33"/><g><path class="cls-3" d="M398.51,514.65c-.49,.31-1.06,.53-1.63,.53-1.09,0-1.48-.7-1.48-1.81v-9.28h-1.6l-.02,9.16c0,2.13,.94,3.42,2.91,3.42,.87,0,1.77-.26,2.43-.77l-.62-1.26Z"/><rect class="cls-3" x="396.41" y="507.33" width="2.22" height="1.4"/></g></g><g><rect class="cls-3" x="338.74" y="522.62" width="2.67" height=".62"/><path class="cls-3" d="M340.04,518.74c-1.75,0-2.98,1.08-2.98,3.1v9.7h.67v-6.66h0v-2.48h0v-.55c0-1.58,.85-2.48,2.31-2.48,.58,0,1.14,.13,1.62,.4l.29-.52c-.55-.3-1.2-.5-1.91-.5Z"/><path class="cls-3" d="M346.87,522.45v.62c2.03,.24,3.45,1.89,3.45,4s-1.42,3.77-3.45,4.02v.62c2.39-.25,4.12-2.17,4.12-4.63s-1.73-4.37-4.12-4.62Z"/><path class="cls-3" d="M341.73,527.07c0,2.46,1.73,4.38,4.12,4.63v-.62c-2.03-.25-3.45-1.91-3.45-4.02s1.42-3.76,3.45-4v-.62c-2.39,.25-4.12,2.17-4.12,4.62Z"/><path class="cls-3" d="M353.64,528.1v-5.48h-.67v5.5c0,2,1.16,3.37,3.03,3.59v-.62c-1.47-.21-2.37-1.31-2.37-2.99Z"/><path class="cls-3" d="M359.38,528.08c0,1.71-.87,2.8-2.37,3.01v.62c1.89-.21,3.03-1.55,3.03-3.59v-5.5h-.67v5.47h0Z"/><path class="cls-3" d="M380.35,524.74c-.62-1.24-1.78-2.1-3.24-2.28v.64c1.92,.29,3.25,1.94,3.25,3.94s-1.33,3.76-3.25,4.05v.64c1.45-.18,2.62-1.06,3.24-2.33v2.13h.67v-12.55h-.67v5.75Z"/><path class="cls-3" d="M372.13,527.08c0,2.46,1.66,4.41,3.97,4.64v-.62c-1.95-.22-3.3-1.91-3.3-4.02s1.34-3.78,3.3-4v-.62c-2.31,.23-3.97,2.17-3.97,4.62Z"/><path class="cls-3" d="M383.15,527.03c0,2.5,1.67,4.46,3.99,4.67v-.62c-1.97-.21-3.33-1.9-3.33-4.04s1.36-3.79,3.33-3.99v-.62c-2.32,.21-3.99,2.11-3.99,4.59Z"/><path class="cls-3" d="M391.32,524.62c-.62-1.19-1.75-2-3.16-2.18v.64c1.91,.3,3.23,1.95,3.23,3.94s-1.32,3.74-3.23,4.05v.64c1.41-.19,2.54-1.03,3.16-2.23v2.05h.67v-8.91h-.67v2Z"/><rect class="cls-3" x="396.33" y="522.62" width="2.99" height=".62"/><path class="cls-3" d="M397.28,531.12c-1.29,0-1.97-.85-1.97-2.43v-2.87h0v-4.28h0v-2.05h-.67v9.26c0,1.77,.8,3,2.59,3,.87,0,1.74-.27,2.41-.78l-.32-.5c-.55,.42-1.27,.66-2.04,.66Z"/><rect class="cls-3" x="401.05" y="522.62" width=".67" height="8.91"/><path class="cls-3" d="M403.8,527.07c0,2.46,1.74,4.39,4.14,4.63v-.62c-2.04-.24-3.47-1.9-3.47-4.02s1.43-3.76,3.47-4v-.62c-2.4,.24-4.14,2.17-4.14,4.62Z"/><path class="cls-3" d="M408.96,522.45v.62c2.02,.25,3.44,1.9,3.44,4s-1.41,3.76-3.44,4.01v.62c2.38-.26,4.1-2.18,4.1-4.63s-1.72-4.36-4.1-4.61Z"/><rect class="cls-3" x="401.05" y="519.47" width=".67" height="1.46"/><path class="cls-3" d="M366.56,522.39c-.87,0-1.62,.21-2.22,.64v.81c.67-.61,1.54-.83,2.22-.83,1.84,0,2.89,1.28,2.89,3.17v5.36h.67v-5.36c0-2.48-1.6-3.78-3.56-3.78Z"/><rect class="cls-3" x="362.65" y="522.62" width=".67" height="8.91"/><path class="cls-3" d="M419.07,522.39c-.87,0-1.62,.21-2.22,.64v.81c.67-.61,1.54-.83,2.22-.83,1.84,0,2.89,1.28,2.89,3.17v5.36h.67v-5.36c0-2.48-1.6-3.78-3.56-3.78Z"/><rect class="cls-3" x="415.16" y="522.62" width=".67" height="8.91"/></g><circle class="cls-3" cx="290.82" cy="507.47" r=".15"/><g><path class="cls-3" d="M321.28,518.48h-3.26c-.08,0-.15,.06-.15,.15v3.26c0,.08,.06,.15,.15,.15h3.26c.08,0,.15-.06,.15-.15v-3.26c0-.08-.06-.15-.15-.15Z"/><path class="cls-3" d="M323.11,508.25c-1.1-.64-2.37-1.01-3.72-1.01-4.1,0-7.44,3.34-7.44,7.44,0,.05,0,16.67,0,16.67,0,.08,.06,.15,.15,.15h3.43c.08,0,.15-.06,.15-.15v-16.47c0-1.97,1.45-3.73,3.41-3.9,.77-.07,1.48,.12,2.09,.46,.07,.04,.15,.02,.19-.05l1.79-2.93c.04-.07,.02-.16-.05-.21Z"/></g></g><g><g><path class="cls-3" d="M592.94,515.97l-.23-.12,.22-.13c1.28-.77,2.04-2.08,2.04-3.48,0-2.39-2.09-4.13-4.97-4.13h-7.39v16.4h7.55c3,0,5.27-1.98,5.27-4.61,0-1.73-.93-3.19-2.48-3.93Zm-6.21-4.56h2.46c1.01,0,1.69,.64,1.69,1.59,0,.47-.16,.87-.46,1.15-.3,.29-.73,.44-1.23,.44h-2.46v-3.19Zm2.64,9.61h-2.64v-3.32h2.64c1.05,0,1.79,.68,1.79,1.65s-.72,1.66-1.79,1.66Z"/><polygon class="cls-3" points="615.37 524.51 615.37 508.11 611.98 508.11 605.17 517.34 605.17 508.11 600.94 508.11 600.94 524.51 604.29 524.51 611.14 515.34 611.14 524.51 615.37 524.51"/><path class="cls-3" d="M658,508.11h-4.65l-2.52,7.11-3.26-7.11h-4.95l5.97,11.43-.05,.07c-.53,.77-1.28,1.09-2.58,1.09h-1.05v3.9h1.34c3.6,0,5.55-1.49,7.2-5.48l4.54-11Z"/><path class="cls-3" d="M674.13,517.85c-.51,1.86-2.03,3.06-3.88,3.06-2.45,0-4.24-1.93-4.24-4.59s1.78-4.62,4.24-4.62c1.77,0,3.25,1.08,3.87,2.82h4.39c-.73-4.09-4.03-6.83-8.27-6.83-4.98,0-8.73,3.71-8.73,8.63s3.75,8.61,8.73,8.61c4.31,0,7.63-2.84,8.32-7.08h-4.43Z"/><path class="cls-3" d="M633.91,512.58s-1.52,1.22-3.29,1.99v-5.31c5.29-.24,8.72-1.87,8.87-1.94l-1.11-2.28s-3.61,1.72-9.04,1.72c-4.82,0-9.06-1.73-9.1-1.75l-.48,1.16-.49,1.19c.18,.07,4.04,1.65,8.81,1.91v9.28c-1.77-.76-3.27-1.97-3.29-1.99l-1.6,1.97c.11,.09,2.34,1.89,4.89,2.73v5.26h2.54v-9.22c2.55-.84,4.79-2.65,4.89-2.73l-1.6-1.97Z"/></g><g><g><path class="cls-3" d="M623.38,493.63v.63h-.32v-.32h-1.07v.95h1.1v.32h-1.1v.96h1.07v-.32h.32v.63h-2.02v-.32h.32v-2.21h-.32v-.32h2.02Z"/><path class="cls-3" d="M631.78,493.63h2.03v.63h-.32v-.32h-.54v2.22h.32v.32h-.95v-.32h.32v-2.22h-.54v.32h-.32v-.63Z"/><path class="cls-3" d="M636.79,496.48v-.32h.32v-2.22h-.32v-.32h.95v.32h-.32v.96h.6c.2,0,.37,.07,.51,.21,.14,.16,.21,.35,.21,.58s-.07,.42-.21,.57c-.14,.14-.31,.21-.51,.21h-1.24Zm1.24-1.26h-.6v.95h.6c.12,0,.21-.04,.29-.12,.08-.09,.12-.21,.12-.35s-.04-.26-.12-.35c-.08-.08-.18-.12-.29-.12Z"/><path class="cls-3" d="M642.97,493.63c.2,0,.37,.07,.51,.21,.14,.16,.21,.35,.21,.57s-.07,.42-.21,.58c-.14,.14-.31,.21-.51,.21h-.6v.96h.32v.32h-.95v-.32h.32v-2.22h-.32v-.32h1.24Zm.29,1.14c.08-.09,.12-.21,.12-.35s-.04-.26-.12-.35c-.08-.08-.18-.12-.29-.12h-.6v.95h.6c.11,0,.21-.04,.29-.12Z"/><rect class="cls-3" x="617.67" y="493.63" width=".95" height=".32"/><rect class="cls-3" x="617.99" y="493.79" width=".32" height="2.43"/><rect class="cls-3" x="616.2" y="493.63" width=".95" height=".32"/><rect class="cls-3" x="616.52" y="493.79" width=".32" height="2.43"/><rect class="cls-3" x="616.2" y="496.17" width="2.43" height=".32"/><rect class="cls-3" x="618.31" y="496.48" width=".32" height=".32"/><rect class="cls-3" x="636.46" y="493.63" width=".74" height=".32"/><rect class="cls-3" x="636.46" y="493.94" width=".32" height=".32"/></g><path class="cls-3" d="M628.74,493.63v.32h-.32v2.22h.32v.32h-.95v-.32h.32v-.96h-1.07v.96h.32v.32h-.95v-.32h.32v-2.22h-.32v-.32h.95v.32h-.32v.95h1.07v-.95h-.32v-.32h.95Z"/></g></g><g><rect class="cls-2" x="130.47" y="21.7" width="458.41" height="28" rx="12" ry="12"/><rect class="cls-5" x="131.11" y="21.7" width="458.41" height="28" rx="12" ry="12"/><g><path class="cls-3" d="M148.72,43.85v-15.97h2.52v10.64l5.31-10.64h2.65v15.97h-2.52v-10.41l-5.3,10.41h-2.65Z"/><path class="cls-3" d="M166.12,37.14h-.58v-2.42c1.84,.09,2.77-.71,2.77-2.43,0-.62-.18-1.12-.54-1.49-.36-.37-.85-.56-1.47-.56-1.07,0-1.77,.67-2.09,2l-2.58-.74c.53-2.6,2.1-3.9,4.72-3.9,1.41,0,2.54,.39,3.4,1.16,.86,.77,1.29,1.77,1.29,2.99,0,1.52-.72,2.74-2.17,3.66,1.74,.76,2.61,2.1,2.61,4.01,0,1.46-.44,2.61-1.32,3.44-.88,.84-2.13,1.25-3.74,1.25-1.37,0-2.44-.27-3.21-.82-.78-.54-1.38-1.59-1.81-3.14l2.43-.98c.24,.92,.55,1.53,.94,1.84,.38,.31,.92,.46,1.59,.46,.73,0,1.32-.2,1.75-.59,.44-.4,.65-.92,.65-1.57s-.23-1.22-.69-1.6c-.46-.38-1.11-.58-1.94-.58Z"/><path class="cls-3" d="M174.25,43.85v-15.97h2.64v6.8c.59-.07,.99-.27,1.22-.59,.22-.32,.52-1.1,.89-2.34,.37-1.23,.75-2.13,1.15-2.7,.4-.56,.82-.91,1.27-1.03,.45-.12,1.22-.21,2.32-.26v2.4h-.37c-.75,0-1.25,.17-1.52,.52-.26,.35-.54,1.01-.82,2-.28,.99-.52,1.64-.72,1.97-.2,.33-.52,.65-.96,.97,.58,.24,1.05,.63,1.42,1.17,.37,.54,.81,1.44,1.32,2.7l1.79,4.37h-3.1l-1.58-4.13c-.4-1.05-.74-1.79-1.03-2.21-.29-.42-.72-.63-1.29-.65v6.98h-2.64Z"/><path class="cls-3" d="M189.31,39.34l-4.82-11.46h2.96l3.04,8.29,2.64-8.29h2.73l-4.42,12.14c-.54,1.48-1.07,2.52-1.58,3.13-.51,.6-1.12,.9-1.83,.9s-1.29-.07-1.83-.2v-2.39c.44,.03,.77,.04,.99,.04,.64,0,1.09-.13,1.35-.4,.26-.27,.51-.86,.76-1.77Z"/><path class="cls-3" d="M206.03,37.98l2.56,.99c-.4,1.79-1.06,3.09-1.99,3.92-.93,.82-2.07,1.24-3.43,1.24-1.71,0-3.09-.66-4.15-1.97-1.22-1.52-1.83-3.57-1.83-6.14,0-2.72,.61-4.85,1.84-6.39,1.07-1.34,2.5-2,4.31-2,1.47,0,2.7,.5,3.69,1.5,.71,.71,1.22,1.77,1.55,3.17l-2.61,.76c-.17-.86-.5-1.53-1-1.99-.5-.46-1.09-.69-1.76-.69-.97,0-1.76,.42-2.37,1.26-.61,.84-.92,2.23-.92,4.17s.3,3.44,.89,4.29c.6,.85,1.37,1.27,2.32,1.27,.7,0,1.3-.27,1.81-.81,.51-.54,.88-1.4,1.1-2.58Z"/><path class="cls-3" d="M214.24,43.85v-13.27h-3.89v-2.7h10.4v2.7h-3.88v13.27h-2.64Z"/><path class="cls-3" d="M222.91,27.88h5.25c1.43,0,2.44,.13,3.02,.39,.58,.26,1.07,.72,1.47,1.38,.4,.66,.6,1.41,.6,2.24,0,.77-.17,1.47-.51,2.09-.34,.62-.79,1.08-1.33,1.38,.78,.28,1.38,.75,1.82,1.42,.44,.67,.66,1.48,.66,2.44,0,1.16-.28,2.14-.84,2.95-.56,.8-1.22,1.3-1.98,1.49-.53,.13-1.76,.2-3.69,.2h-4.46v-15.97Zm2.64,2.66v3.69h1.74c1.05,0,1.69-.02,1.94-.05,.45-.07,.8-.26,1.06-.57s.38-.73,.38-1.26c0-.47-.1-.86-.31-1.15-.21-.29-.46-.48-.75-.55-.29-.07-1.14-.11-2.53-.11h-1.53Zm0,6.35v4.26h2.46c1.08,0,1.77-.06,2.07-.17s.56-.33,.77-.66c.21-.33,.31-.75,.31-1.26s-.11-.95-.33-1.29c-.22-.34-.52-.57-.88-.7-.37-.13-1.12-.19-2.25-.19h-2.14Z"/><path class="cls-3" d="M236.03,35.96c0-1.9,.28-3.47,.84-4.7s1.3-2.15,2.21-2.75c.91-.6,2.01-.9,3.3-.9,1.87,0,3.4,.72,4.58,2.15s1.77,3.47,1.77,6.11-.62,4.76-1.87,6.26c-1.1,1.33-2.59,1.99-4.47,1.99s-3.39-.66-4.49-1.97c-1.25-1.5-1.87-3.57-1.87-6.19Zm2.72-.11c0,1.84,.35,3.22,1.05,4.13s1.56,1.38,2.6,1.38,1.9-.46,2.59-1.37c.68-.91,1.03-2.31,1.03-4.2s-.33-3.22-1-4.11c-.67-.89-1.54-1.33-2.61-1.33s-1.95,.45-2.63,1.34c-.68,.89-1.01,2.28-1.01,4.15Z"/><path class="cls-3" d="M256.73,27.88h5.25c1.43,0,2.44,.13,3.02,.39,.58,.26,1.07,.72,1.47,1.38,.4,.66,.6,1.41,.6,2.24,0,.77-.17,1.47-.51,2.09-.34,.62-.79,1.08-1.33,1.38,.78,.28,1.38,.75,1.82,1.42,.44,.67,.66,1.48,.66,2.44,0,1.16-.28,2.14-.84,2.95-.56,.8-1.22,1.3-1.98,1.49-.53,.13-1.76,.2-3.69,.2h-4.46v-15.97Zm2.64,2.66v3.69h1.74c1.05,0,1.69-.02,1.94-.05,.45-.07,.8-.26,1.06-.57,.25-.31,.38-.73,.38-1.26,0-.47-.1-.86-.31-1.15-.21-.29-.46-.48-.75-.55-.29-.07-1.14-.11-2.53-.11h-1.53Zm0,6.35v4.26h2.46c1.08,0,1.77-.06,2.07-.17s.56-.33,.77-.66c.21-.33,.31-.75,.31-1.26s-.11-.95-.33-1.29-.52-.57-.88-.7c-.37-.13-1.12-.19-2.25-.19h-2.14Z"/><path class="cls-3" d="M278.56,43.85h-2.64v-15.97h10.46v15.97h-2.64v-13.27h-5.19v13.27Z"/><path class="cls-3" d="M293.04,39.34l-4.82-11.46h2.96l3.04,8.29,2.64-8.29h2.74l-4.42,12.14c-.55,1.48-1.07,2.52-1.58,3.13-.51,.6-1.12,.9-1.83,.9s-1.29-.07-1.83-.2v-2.39c.44,.03,.77,.04,.99,.04,.64,0,1.09-.13,1.35-.4,.26-.27,.51-.86,.76-1.77Z"/><path class="cls-3" d="M301.42,43.85v-15.97h9.79v2.7h-7.16v3.65h3.75c1.42,0,2.53,.44,3.33,1.32,.81,.88,1.21,2.05,1.21,3.5,0,1.26-.34,2.38-1.03,3.34s-1.86,1.45-3.51,1.45h-6.38Zm2.64-6.92v4.22h2.78c.73,0,1.25-.05,1.57-.15,.32-.1,.61-.33,.85-.68,.24-.36,.36-.77,.36-1.24,0-1.43-.89-2.15-2.67-2.15h-2.89Z"/><path class="cls-3" d="M322.45,43.85v-13.27h-3.92v6.83c0,1.78-.05,3.09-.16,3.95s-.36,1.5-.77,1.94c-.41,.44-1.08,.66-2,.66-.27,0-.82-.04-1.67-.11v-2.52h.58c.57,0,.94-.09,1.12-.28,.18-.19,.27-.64,.27-1.38v-11.8h9.2v15.97h-2.64Z"/><path class="cls-3" d="M328.26,43.85v-15.97h2.52v10.64l5.3-10.64h2.65v15.97h-2.52v-10.41l-5.3,10.41h-2.65Z"/><path class="cls-3" d="M341.64,33.59v-5.71h2.64v4.24c0,.89,.04,1.55,.11,1.98s.29,.8,.64,1.09,.9,.45,1.65,.45c1.12,0,2.01-.29,2.68-.87v-6.89h2.64v15.97h-2.64v-6.43c-1.04,.57-2.08,.85-3.13,.85-1.45,0-2.58-.41-3.39-1.23-.81-.82-1.21-1.97-1.21-3.46Z"/><path class="cls-3" d="M355.14,43.85v-15.97h2.64v6.29h5.2v-6.29h2.64v15.97h-2.64v-6.98h-5.2v6.98h-2.64Z"/><path class="cls-3" d="M368.25,35.96c0-1.9,.28-3.47,.84-4.7,.56-1.23,1.3-2.15,2.21-2.75,.91-.6,2.01-.9,3.3-.9,1.87,0,3.4,.72,4.58,2.15,1.18,1.43,1.77,3.47,1.77,6.11s-.62,4.76-1.87,6.26c-1.1,1.33-2.59,1.99-4.47,1.99s-3.39-.66-4.49-1.97c-1.25-1.5-1.87-3.57-1.87-6.19Zm2.72-.11c0,1.84,.35,3.22,1.05,4.13s1.56,1.38,2.6,1.38,1.9-.46,2.59-1.37c.68-.91,1.03-2.31,1.03-4.2s-.33-3.22-1-4.11c-.67-.89-1.54-1.33-2.61-1.33s-1.95,.45-2.63,1.34c-.68,.89-1.01,2.28-1.01,4.15Z"/><path class="cls-3" d="M386.4,43.85v-13.27h-3.89v-2.7h10.4v2.7h-3.88v13.27h-2.64Z"/><path class="cls-3" d="M394.54,35.96c0-1.9,.28-3.47,.84-4.7,.56-1.23,1.3-2.15,2.21-2.75,.91-.6,2.01-.9,3.3-.9,1.87,0,3.4,.72,4.58,2.15,1.18,1.43,1.77,3.47,1.77,6.11s-.62,4.76-1.87,6.26c-1.1,1.33-2.59,1.99-4.47,1.99s-3.39-.66-4.49-1.97c-1.25-1.5-1.87-3.57-1.87-6.19Zm2.72-.11c0,1.84,.35,3.22,1.05,4.13s1.56,1.38,2.6,1.38,1.9-.46,2.59-1.37c.68-.91,1.03-2.31,1.03-4.2s-.33-3.22-1-4.11c-.67-.89-1.54-1.33-2.61-1.33s-1.95,.45-2.63,1.34c-.68,.89-1.01,2.28-1.01,4.15Z"/><path class="cls-3" d="M417.91,43.85h-2.64v-15.97h10.46v15.97h-2.64v-13.27h-5.19v13.27Z"/><path class="cls-3" d="M428.89,43.85v-15.97h4.25c1.58,0,2.62,.08,3.1,.23,.78,.25,1.42,.77,1.92,1.58s.76,1.84,.76,3.12c0,1.15-.22,2.12-.65,2.9s-.98,1.33-1.63,1.65c-.65,.32-1.78,.47-3.38,.47h-1.73v6.02h-2.64Zm2.64-13.27v4.54h1.46c.98,0,1.65-.07,2-.21,.35-.14,.64-.39,.87-.75,.23-.36,.34-.8,.34-1.33s-.12-.98-.35-1.34c-.23-.36-.52-.61-.86-.73-.34-.12-1.07-.19-2.17-.19h-1.29Z"/><path class="cls-3" d="M441.01,35.96c0-1.9,.28-3.47,.84-4.7,.56-1.23,1.3-2.15,2.21-2.75,.91-.6,2.01-.9,3.3-.9,1.87,0,3.4,.72,4.58,2.15,1.18,1.43,1.77,3.47,1.77,6.11s-.62,4.76-1.87,6.26c-1.1,1.33-2.59,1.99-4.47,1.99s-3.39-.66-4.49-1.97c-1.25-1.5-1.87-3.57-1.87-6.19Zm2.72-.11c0,1.84,.35,3.22,1.05,4.13s1.56,1.38,2.6,1.38,1.9-.46,2.59-1.37c.68-.91,1.03-2.31,1.03-4.2s-.33-3.22-1-4.11c-.67-.89-1.54-1.33-2.61-1.33s-1.95,.45-2.63,1.34c-.68,.89-1.01,2.28-1.01,4.15Z"/><path class="cls-3" d="M464.59,37.98l2.56,.99c-.4,1.79-1.06,3.09-1.99,3.92-.93,.82-2.07,1.24-3.43,1.24-1.71,0-3.09-.66-4.15-1.97-1.22-1.52-1.83-3.57-1.83-6.14,0-2.72,.61-4.85,1.84-6.39,1.07-1.34,2.5-2,4.31-2,1.47,0,2.7,.5,3.69,1.5,.71,.71,1.22,1.77,1.55,3.17l-2.61,.76c-.17-.86-.5-1.53-1-1.99s-1.09-.69-1.76-.69c-.97,0-1.76,.42-2.37,1.26-.61,.84-.92,2.23-.92,4.17s.3,3.44,.89,4.29c.6,.85,1.37,1.27,2.32,1.27,.7,0,1.3-.27,1.81-.81,.51-.54,.88-1.4,1.1-2.58Z"/><path class="cls-3" d="M472.81,43.85v-13.27h-3.89v-2.7h10.4v2.7h-3.88v13.27h-2.64Z"/><path class="cls-3" d="M481.48,43.85v-15.97h4.25c1.58,0,2.62,.08,3.1,.23,.78,.25,1.42,.77,1.92,1.58s.76,1.84,.76,3.12c0,1.15-.22,2.12-.65,2.9s-.98,1.33-1.63,1.65c-.65,.32-1.78,.47-3.38,.47h-1.73v6.02h-2.64Zm2.64-13.27v4.54h1.46c.98,0,1.65-.07,2-.21,.35-.14,.64-.39,.87-.75,.23-.36,.34-.8,.34-1.33s-.12-.98-.35-1.34c-.23-.36-.52-.61-.86-.73-.34-.12-1.07-.19-2.17-.19h-1.29Z"/><path class="cls-3" d="M505.94,43.85h-2.87l-1.15-3.62h-5.24l-1.08,3.62h-2.81l5.1-15.97h2.8l5.25,15.97Zm-4.87-6.32l-1.81-5.93-1.77,5.93h3.58Z"/><path class="cls-3" d="M507.78,43.85v-15.97h2.64v6.29h5.2v-6.29h2.64v15.97h-2.64v-6.98h-5.2v6.98h-2.64Z"/><path class="cls-3" d="M529.81,37.98l2.56,.99c-.4,1.79-1.06,3.09-1.99,3.92-.93,.82-2.07,1.24-3.43,1.24-1.71,0-3.09-.66-4.15-1.97-1.22-1.52-1.83-3.57-1.83-6.14,0-2.72,.61-4.85,1.84-6.39,1.07-1.34,2.5-2,4.31-2,1.47,0,2.7,.5,3.69,1.5,.71,.71,1.22,1.77,1.55,3.17l-2.61,.76c-.17-.86-.5-1.53-1-1.99s-1.09-.69-1.76-.69c-.97,0-1.76,.42-2.37,1.26-.61,.84-.92,2.23-.92,4.17s.3,3.44,.89,4.29c.6,.85,1.37,1.27,2.32,1.27,.7,0,1.3-.27,1.81-.81,.51-.54,.88-1.4,1.1-2.58Z"/><path class="cls-3" d="M538.02,43.85v-13.27h-3.89v-2.7h10.4v2.7h-3.88v13.27h-2.64Z"/><path class="cls-3" d="M546.7,27.88h5.25c1.43,0,2.44,.13,3.02,.39,.58,.26,1.07,.72,1.47,1.38,.4,.66,.6,1.41,.6,2.24,0,.77-.17,1.47-.51,2.09-.34,.62-.79,1.08-1.33,1.38,.78,.28,1.38,.75,1.82,1.42,.44,.67,.66,1.48,.66,2.44,0,1.16-.28,2.14-.84,2.95-.56,.8-1.22,1.3-1.98,1.49-.53,.13-1.76,.2-3.69,.2h-4.46v-15.97Zm2.64,2.66v3.69h1.74c1.05,0,1.69-.02,1.94-.05,.45-.07,.8-.26,1.06-.57s.38-.73,.38-1.26c0-.47-.1-.86-.31-1.15-.21-.29-.46-.48-.75-.55-.29-.07-1.14-.11-2.53-.11h-1.52Zm0,6.35v4.26h2.46c1.08,0,1.77-.06,2.07-.17s.56-.33,.77-.66,.31-.75,.31-1.26-.11-.95-.33-1.29c-.22-.34-.52-.57-.88-.7-.37-.13-1.12-.19-2.25-.19h-2.14Z"/><path class="cls-3" d="M559.81,35.96c0-1.9,.28-3.47,.84-4.7,.56-1.23,1.3-2.15,2.21-2.75,.91-.6,2.01-.9,3.3-.9,1.87,0,3.4,.72,4.58,2.15,1.18,1.43,1.77,3.47,1.77,6.11s-.62,4.76-1.87,6.26c-1.1,1.33-2.59,1.99-4.47,1.99s-3.39-.66-4.49-1.97c-1.25-1.5-1.87-3.57-1.87-6.19Zm2.72-.11c0,1.84,.35,3.22,1.05,4.13s1.56,1.38,2.6,1.38,1.9-.46,2.59-1.37c.68-.91,1.03-2.31,1.03-4.2s-.33-3.22-1-4.11c-.67-.89-1.54-1.33-2.61-1.33s-1.95,.45-2.63,1.34c-.68,.89-1.01,2.28-1.01,4.15Z"/></g></g><g><rect class="cls-1" x="335.58" y="209.07" width="337.4" height="31.41" rx="12" ry="12"/><rect class="cls-5" x="336.4" y="209.07" width="337.4" height="31.41" rx="12" ry="12"/><g><path class="cls-3" d="M352.99,231.29v-14.32h3.81c1.42,0,2.35,.07,2.78,.21,.7,.22,1.27,.69,1.72,1.42,.45,.72,.68,1.65,.68,2.79,0,1.04-.2,1.9-.59,2.6s-.88,1.19-1.46,1.47-1.59,.42-3.03,.42h-1.55v5.4h-2.36Zm2.36-11.89v4.07h1.31c.88,0,1.48-.06,1.8-.19s.58-.35,.78-.67c.2-.32,.3-.72,.3-1.19s-.1-.88-.31-1.2c-.21-.33-.47-.54-.77-.66s-.96-.17-1.95-.17h-1.16Z"/><path class="cls-3" d="M374.93,231.29h-2.57l-1.03-3.24h-4.7l-.97,3.24h-2.52l4.57-14.32h2.51l4.71,14.32Zm-4.36-5.66l-1.62-5.31-1.59,5.31h3.21Z"/><path class="cls-3" d="M376.62,231.29v-14.32h8.78v2.42h-6.42v3.27h3.36c1.27,0,2.27,.4,2.99,1.19s1.08,1.84,1.08,3.14c0,1.13-.31,2.13-.92,3s-1.67,1.3-3.15,1.3h-5.72Zm2.36-6.2v3.78h2.5c.65,0,1.12-.04,1.41-.13s.54-.29,.76-.61c.22-.32,.33-.69,.33-1.11,0-1.28-.8-1.92-2.4-1.92h-2.59Z"/><path class="cls-3" d="M388.28,224.22c0-1.71,.25-3.11,.76-4.21s1.16-1.93,1.98-2.47,1.8-.81,2.96-.81c1.68,0,3.05,.64,4.11,1.92s1.59,3.11,1.59,5.48-.56,4.27-1.68,5.62c-.98,1.19-2.32,1.79-4,1.79s-3.04-.59-4.02-1.77c-1.12-1.35-1.68-3.2-1.68-5.55Zm2.44-.1c0,1.65,.31,2.88,.94,3.71s1.4,1.24,2.33,1.24,1.71-.41,2.32-1.23c.61-.82,.92-2.07,.92-3.76s-.3-2.89-.89-3.68-1.38-1.19-2.34-1.19-1.75,.4-2.36,1.2-.91,2.04-.91,3.72Z"/><path class="cls-3" d="M404.55,231.29v-11.89h-3.49v-2.42h9.33v2.42h-3.48v11.89h-2.36Z"/><path class="cls-3" d="M412.34,231.29v-14.32h2.26v9.54l4.76-9.54h2.37v14.32h-2.26v-9.34l-4.75,9.34h-2.38Z"/><path class="cls-3" d="M431.23,231.29v-11.89h-3.52v6.12c0,1.59-.05,2.77-.14,3.54s-.33,1.34-.69,1.74-.96,.6-1.79,.6c-.24,0-.74-.03-1.49-.1v-2.26h.52c.51,0,.84-.08,1-.25s.24-.58,.24-1.24v-10.58h8.24v14.32h-2.36Z"/><path class="cls-3" d="M436.44,231.29v-14.32h2.36v5.63h4.66v-5.63h2.36v14.32h-2.36v-6.26h-4.66v6.26h-2.36Z"/><path class="cls-3" d="M448.67,231.29v-14.32h2.26v9.54l4.76-9.54h2.37v14.32h-2.26v-9.34l-4.75,9.34h-2.38Z"/><path class="cls-3" d="M470.24,228.86h.97v5.54h-1.94v-3.12h-8.36v-14.32h2.36v11.89h4.61v-11.89h2.36v11.89Z"/><path class="cls-3" d="M473.23,231.29v-14.32h2.26v9.54l4.76-9.54h2.37v14.32h-2.26v-9.34l-4.75,9.34h-2.38Z"/><path class="cls-3" d="M493.77,225.27h-.52v-2.17c1.65,.08,2.48-.64,2.48-2.18,0-.56-.16-1.01-.48-1.34s-.76-.5-1.32-.5c-.96,0-1.58,.6-1.87,1.8l-2.31-.66c.48-2.33,1.88-3.5,4.23-3.5,1.26,0,2.28,.35,3.05,1.04,.77,.69,1.15,1.59,1.15,2.68,0,1.36-.65,2.45-1.94,3.28,1.56,.68,2.34,1.88,2.34,3.6,0,1.31-.4,2.34-1.19,3.09-.79,.75-1.91,1.12-3.35,1.12-1.22,0-2.18-.24-2.88-.73s-1.24-1.43-1.62-2.81l2.18-.88c.21,.82,.5,1.37,.84,1.65s.82,.42,1.43,.42c.66,0,1.18-.18,1.57-.53s.59-.83,.59-1.41-.21-1.09-.62-1.44-.99-.52-1.74-.52Z"/><path class="cls-3" d="M511.6,231.29h-2.57l-1.03-3.24h-4.7l-.97,3.24h-2.52l4.57-14.32h2.51l4.71,14.32Zm-4.36-5.66l-1.62-5.31-1.59,5.31h3.21Z"/><path class="cls-3" d="M527.23,228.86h1.02v5.54h-1.94v-3.12h-7.41v3.12h-1.94v-5.54h.98c.38-1,.68-2.21,.89-3.63s.31-3.54,.31-6.35v-1.91h8.11v11.89Zm-2.36-9.47h-3.5c0,4.22-.32,7.38-.97,9.47h4.46v-9.47Z"/><path class="cls-3" d="M530.27,231.29v-14.32h8.71v2.42h-6.35v3.17h5.9v2.41h-5.9v3.89h6.56v2.42h-8.93Z"/><path class="cls-3" d="M550.98,228.86h.97v5.54h-1.94v-3.12h-8.36v-14.32h2.36v11.89h4.61v-11.89h2.36v11.89Z"/><path class="cls-3" d="M564.56,231.29h-2.57l-1.03-3.24h-4.7l-.97,3.24h-2.52l4.57-14.32h2.51l4.71,14.32Zm-4.36-5.66l-1.62-5.31-1.59,5.31h3.21Z"/><path class="cls-3" d="M571.15,231.29v-14.32h2.26v9.54l4.76-9.54h2.37v14.32h-2.26v-9.34l-4.75,9.34h-2.38Z"/><path class="cls-3" d="M590.65,225.35v5.94h-2.36v-14.32h2.36v5.96h1.91c.18-2.01,.73-3.54,1.67-4.6s2.17-1.6,3.7-1.6c1.66,0,2.96,.65,3.91,1.95s1.42,3.11,1.42,5.43-.47,4.13-1.41,5.44-2.22,1.96-3.85,1.96c-1,0-1.85-.18-2.53-.53s-1.32-1.04-1.89-2.08-.91-2.22-1-3.56h-1.91Zm7.18-6.16c-1.92,0-2.88,1.7-2.88,5.1,0,1.54,.26,2.73,.78,3.58s1.24,1.28,2.16,1.28c1.95,0,2.92-1.72,2.92-5.17,0-1.54-.26-2.72-.79-3.55s-1.26-1.25-2.19-1.25Z"/><path class="cls-3" d="M605.57,231.29v-14.32h2.36v5.63h4.66v-5.63h2.36v14.32h-2.36v-6.26h-4.66v6.26h-2.36Z"/><path class="cls-3" d="M617.31,224.22c0-1.71,.25-3.11,.76-4.21s1.16-1.93,1.98-2.47,1.8-.81,2.96-.81c1.68,0,3.05,.64,4.11,1.92s1.59,3.11,1.59,5.48-.56,4.27-1.68,5.62c-.98,1.19-2.32,1.79-4,1.79s-3.04-.59-4.02-1.77c-1.12-1.35-1.68-3.2-1.68-5.55Zm2.44-.1c0,1.65,.31,2.88,.94,3.71s1.4,1.24,2.33,1.24,1.71-.41,2.32-1.23c.61-.82,.92-2.07,.92-3.76s-.3-2.89-.89-3.68-1.38-1.19-2.34-1.19-1.75,.4-2.36,1.2-.91,2.04-.91,3.72Z"/><path class="cls-3" d="M630.99,231.29v-14.32h2.36v11.89h3.42v-11.89h2.36v11.89h3.5v-11.89h2.36v14.32h-14Z"/><path class="cls-3" d="M647.81,231.29v-14.32h2.26v9.54l4.76-9.54h2.37v14.32h-2.26v-9.34l-4.75,9.34h-2.38Z"/></g></g></svg>